<?xml version="1.0" encoding="utf-8"?>
<!-- Generator: Adobe Illustrator 16.0.0, SVG Export Plug-In . SVG Version: 6.00 Build 0)  -->
<!DOCTYPE svg PUBLIC "-//W3C//DTD SVG 1.1//EN" "http://www.w3.org/Graphics/SVG/1.1/DTD/svg11.dtd">
<svg version="1.1" id="Layer_1" xmlns="http://www.w3.org/2000/svg" xmlns:xlink="http://www.w3.org/1999/xlink" x="0px" y="0px"
	 width="668px" height="100px" viewBox="0 0 668 100" enable-background="new 0 0 668 100" xml:space="preserve">
<rect x="-28.352" y="-170" fill="#010733" width="668" height="100"/>
<rect x="47.351" y="5.56" fill="#FFFFFF" width="4.937" height="76.561"/>
<rect x="20.6" y="21.483" fill="#FFFFFF" width="59.71" height="4.299"/>
<path fill="#8DD809" d="M71.234,29.684l-3.503-1.512c0,0-1.353-6.21-6.369-2.389c0,0-5.414,6.37-9.076,6.37
	c0,0-4.06,0.159-6.688-2.628c0,0-8.2-6.496-14.251-1.177l-5.573,6.273c0,0-0.875,1.274-1.592,1.512c0,0,1.115,1.592,2.149,1.592
	c0,0,0.875,1.194,2.07,0c0,0,0.637,2.335,2.468,0.53l1.274,0.106l0.637,0.579c0,0-1.035,1.094-1.99,1.651
	c-0.955,0.558-2.866,1.115-2.866,1.115l-1.274,0.557l-4.378,0.803c0,0-4.061,0.153-3.264,2.78l1.592,1.273l0.796,2.548l0.649,1.667
	h0.784l0.478,1.039h0.716c0,0,3.503,0.479,4.856-0.717c0,0,3.105-0.078,3.981-2.708c0,0,8.917-1.354,9.633-2.148
	c0,0,0.558-0.239,0.558,0.637s-0.398,2.389,0.637,2.389c0,0,0.717,3.98,1.831,1.831c0,0,0.239,1.752,1.832,1.434l4.936,3.742h1.353
	c0,0-0.16,2.229,1.114,0.955l1.036,1.672c0,0,0-2.067,0-4.617c0,0,2.946-9.632,2.547-11.066c0,0-0.398-1.562-0.558-1.776
	c-0.16-0.214,3.901-5.229,5.095-7.857l2.627-3.423l6.369-0.08l-3.98-1.194L71.234,29.684z"/>
<path fill="#8DD809" d="M80.709,22.121c0,0,1.194-0.886,2.547-1.438c1.354-0.553,1.035,1.438,1.035,1.438s0.318,3.105-3.981,4.617
	c0,0,0.08,0.796,0,0.875c-0.08,0.08,2.007,0,2.007,0l3.407,2.31l-1.831,4.219c0,0-3.885-0.911-4.172-1.848
	c-0.288-0.938-0.589-2.61,0-3.645c0,0,0.271-1.615-1.322-1.285c0,0-1.592,0.249-3.105,1.603l-2.07,1.353l0.478,0.956
	c0,0,1.194-0.159,1.991,0.398l0.637,0.08c0,0,0.558,0.636-0.716,0.557c0,0,0.637,2.707,0,3.264l-0.558-0.955l-0.716,2.228
	c0,0-0.08-2.148-1.115-2.069c0,0-0.796-0.079-0.875,0.796c0,0-0.637-0.08-0.478-2.229l-0.477-0.238c0,0,0.558-1.433,1.114-1.672
	L72.43,30.72l-5.733-0.716l0.558-0.716l4.617,0.478c0,0,2.627,0.081,4.34-3.185L80.709,22.121z"/>
<path fill="#FFFFFF" d="M97.086,20.795c0,0-22.394-5.697-22.612,31.32c0,0-2.389,11.293-7.259,15.521
	c-4.869,4.229-27.132,19.718-27.132,19.718S68.291,75.492,75.152,67.15c0,0,5.596-6.857,5.171-19.203
	C80.323,47.947,81.368,25.969,97.086,20.795z"/>
<path fill="#FFFFFF" d="M3.063,21.324c0,0,22.394-5.696,22.612,31.32c0,0,2.389,11.293,7.259,15.521
	c4.869,4.227,27.132,19.715,27.132,19.715S31.858,76.02,24.997,67.68c0,0-5.596-6.856-5.171-19.204
	C19.826,48.476,18.782,26.498,3.063,21.324z"/>
<g>
	<path fill="#FFFFFF" d="M139.4,71h-12.2c-4.167,0-7.259-0.833-9.275-2.5c-2.017-1.666-3.025-4.232-3.025-7.7V45.25
		c0-3.466,1.008-6.042,3.025-7.725C119.941,35.842,123.033,35,127.2,35h12.2c0.633,0,1.091,0.142,1.375,0.425
		c0.282,0.284,0.425,0.742,0.425,1.375v6.05c0,0.633-0.143,1.092-0.425,1.375c-0.284,0.284-0.742,0.425-1.375,0.425h-10.05
		c-1.034,0-1.8,0.208-2.3,0.625s-0.75,1.042-0.75,1.875v11.9c0,0.834,0.25,1.442,0.75,1.825c0.5,0.384,1.267,0.575,2.3,0.575h10.05
		c0.633,0,1.091,0.142,1.375,0.425c0.282,0.283,0.425,0.742,0.425,1.375v5.95c0,0.634-0.143,1.092-0.425,1.375
		C140.491,70.857,140.033,71,139.4,71z M136.65,66h-8.35c-3,0-5-0.45-6-1.35c-1-0.9-1.5-2.435-1.5-4.602v-14
		c0-2.2,0.517-3.758,1.55-4.675c1.033-0.917,3.016-1.375,5.95-1.375h8.35v-0.5h-8.35c-3.2,0-5.333,0.5-6.4,1.5s-1.6,2.684-1.6,5.05
		v14c0,2.301,0.525,3.95,1.575,4.95s3.191,1.5,6.425,1.5h8.35V66z"/>
	<path fill="#FFFFFF" d="M177.101,61.55c0,1.534-0.226,2.925-0.675,4.175c-0.45,1.25-1.25,2.317-2.4,3.2
		c-1.15,0.884-2.733,1.575-4.75,2.075c-2.018,0.5-4.575,0.75-7.675,0.75c-3.101,0-5.667-0.25-7.7-0.75
		c-2.033-0.5-3.625-1.191-4.775-2.075c-1.149-0.883-1.949-1.95-2.399-3.2c-0.45-1.25-0.675-2.641-0.675-4.175V44.5
		c0-1.533,0.225-2.925,0.675-4.175c0.45-1.25,1.25-2.325,2.399-3.225c1.15-0.9,2.742-1.6,4.775-2.1c2.033-0.5,4.6-0.75,7.7-0.75
		s5.657,0.25,7.675,0.75c2.017,0.5,3.6,1.2,4.75,2.1s1.95,1.975,2.4,3.225c0.449,1.25,0.675,2.642,0.675,4.175V61.55z M171.65,60.4
		V45.65c0-2-0.717-3.625-2.15-4.875s-4.1-1.875-8-1.875c-3.899,0-6.55,0.625-7.949,1.875c-1.4,1.25-2.101,2.875-2.101,4.875V60.4
		c0,2,0.7,3.625,2.101,4.875c1.399,1.25,4.05,1.875,7.949,1.875c3.9,0,6.566-0.625,8-1.875S171.65,62.4,171.65,60.4z M151.95,60.4
		V45.65c0-1.866,0.667-3.375,2-4.525s3.851-1.725,7.55-1.725c3.7,0,6.233,0.575,7.601,1.725c1.366,1.15,2.05,2.659,2.05,4.525V60.4
		c0,1.867-0.684,3.375-2.05,4.523c-1.367,1.15-3.9,1.727-7.601,1.727c-3.699,0-6.217-0.575-7.55-1.727
		C152.617,63.775,151.95,62.268,151.95,60.4z M157.4,59.75c0,0.667,0.25,1.225,0.75,1.675s1.65,0.675,3.45,0.675
		c1.8,0,2.95-0.225,3.45-0.675s0.75-1.008,0.75-1.675V46.3c0-0.633-0.25-1.175-0.75-1.625c-0.5-0.45-1.65-0.675-3.45-0.675
		c-1.8,0-2.95,0.225-3.45,0.675c-0.5,0.45-0.75,0.992-0.75,1.625V59.75z"/>
	<path fill="#FFFFFF" d="M192.7,71h-7.45c-0.634,0-1.092-0.143-1.375-0.425c-0.283-0.283-0.425-0.741-0.425-1.375V36.8
		c0-0.633,0.142-1.091,0.425-1.375c0.283-0.283,0.741-0.425,1.375-0.425h8.05c0.533,0,0.976,0.117,1.325,0.35
		c0.35,0.233,0.675,0.617,0.975,1.15l4.5,8.15c0.167,0.3,0.309,0.517,0.426,0.65c0.116,0.134,0.274,0.2,0.475,0.2h0.45
		c0.2,0,0.357-0.066,0.475-0.2c0.116-0.133,0.258-0.35,0.425-0.65l4.45-8.15c0.3-0.533,0.625-0.917,0.976-1.15
		c0.35-0.233,0.791-0.35,1.324-0.35h8.101c0.633,0,1.091,0.142,1.375,0.425c0.28,0.283,0.423,0.742,0.423,1.375v32.4
		c0,0.634-0.143,1.092-0.425,1.375C218.291,70.857,217.833,71,217.2,71h-7.7c-0.634,0-1.092-0.143-1.375-0.425
		c-0.283-0.283-0.425-0.741-0.425-1.375V51.6l-2.95,5.45c-0.3,0.567-0.658,0.976-1.075,1.226s-0.942,0.375-1.575,0.375h-2
		c-0.633,0-1.158-0.125-1.574-0.375c-0.418-0.25-0.775-0.657-1.075-1.226l-2.95-5.45V69.2c0,0.634-0.143,1.092-0.425,1.375
		C193.791,70.857,193.333,71,192.7,71z M201.05,51.75c-0.6,0-1.033-0.133-1.3-0.4c-0.268-0.266-0.684-0.832-1.25-1.7l-6.1-9.3
		c-0.2-0.333-0.434-0.558-0.7-0.675c-0.268-0.116-0.534-0.175-0.8-0.175h-0.851c-0.434,0-0.759,0.125-0.975,0.375
		c-0.218,0.25-0.325,0.642-0.325,1.175V66.5h0.5V41.05c0-0.266,0.05-0.508,0.15-0.725c0.1-0.217,0.316-0.325,0.649-0.325h0.75
		c0.233,0,0.441,0.034,0.625,0.1c0.183,0.067,0.375,0.267,0.575,0.6l6.1,9.2c0.601,0.9,1.059,1.517,1.375,1.85
		c0.316,0.334,0.842,0.5,1.575,0.5c0.733,0,1.258-0.166,1.575-0.5c0.316-0.333,0.775-0.95,1.375-1.85l6.1-9.2
		c0.2-0.333,0.383-0.533,0.551-0.6c0.166-0.066,0.366-0.1,0.6-0.1H212c0.333,0,0.558,0.108,0.675,0.325
		c0.116,0.217,0.175,0.458,0.175,0.725V66.5h0.5V41.05c0-0.533-0.108-0.925-0.324-1.175c-0.218-0.25-0.559-0.375-1.025-0.375h-0.85
		c-0.268,0-0.525,0.059-0.775,0.175c-0.25,0.117-0.475,0.342-0.675,0.675l-6.101,9.3c-0.566,0.868-0.983,1.434-1.25,1.7
		C202.083,51.617,201.65,51.75,201.05,51.75z"/>
	<path fill="#FFFFFF" d="M235.15,71h-7.45c-0.634,0-1.092-0.143-1.375-0.425c-0.283-0.283-0.425-0.741-0.425-1.375V36.8
		c0-0.633,0.142-1.091,0.425-1.375C226.608,35.142,227.066,35,227.7,35h8.05c0.533,0,0.976,0.117,1.325,0.35
		c0.35,0.233,0.675,0.617,0.975,1.15l4.5,8.15c0.167,0.3,0.309,0.517,0.426,0.65c0.116,0.134,0.274,0.2,0.475,0.2h0.45
		c0.2,0,0.357-0.066,0.475-0.2c0.116-0.133,0.258-0.35,0.425-0.65l4.45-8.15c0.3-0.533,0.625-0.917,0.976-1.15
		c0.35-0.233,0.791-0.35,1.324-0.35h8.101c0.633,0,1.091,0.142,1.375,0.425c0.282,0.284,0.425,0.742,0.425,1.375v32.4
		c0,0.634-0.143,1.092-0.425,1.375C260.741,70.857,260.283,71,259.65,71h-7.7c-0.634,0-1.092-0.143-1.375-0.425
		c-0.283-0.283-0.425-0.741-0.425-1.375V51.6l-2.95,5.45c-0.3,0.567-0.658,0.976-1.075,1.226s-0.942,0.375-1.575,0.375h-2
		c-0.633,0-1.158-0.125-1.574-0.375c-0.418-0.25-0.775-0.657-1.075-1.226l-2.95-5.45V69.2c0,0.634-0.143,1.092-0.425,1.375
		C236.241,70.857,235.783,71,235.15,71z M243.5,51.75c-0.6,0-1.033-0.133-1.3-0.4c-0.268-0.266-0.684-0.832-1.25-1.7l-6.1-9.3
		c-0.2-0.333-0.434-0.558-0.7-0.675c-0.268-0.116-0.534-0.175-0.8-0.175h-0.85c-0.434,0-0.759,0.125-0.975,0.375
		c-0.218,0.25-0.325,0.642-0.325,1.175V66.5h0.5V41.05c0-0.266,0.05-0.508,0.15-0.725c0.1-0.217,0.316-0.325,0.649-0.325h0.75
		c0.233,0,0.441,0.034,0.625,0.1c0.183,0.067,0.375,0.267,0.575,0.6l6.1,9.2c0.601,0.9,1.059,1.517,1.375,1.85
		c0.316,0.334,0.842,0.5,1.575,0.5s1.258-0.166,1.575-0.5c0.316-0.333,0.775-0.95,1.375-1.85l6.1-9.2
		c0.2-0.333,0.383-0.533,0.551-0.6c0.166-0.066,0.366-0.1,0.6-0.1h0.75c0.333,0,0.558,0.108,0.675,0.325
		c0.116,0.217,0.175,0.458,0.175,0.725V66.5h0.5V41.05c0-0.533-0.108-0.925-0.324-1.175c-0.218-0.25-0.559-0.375-1.025-0.375h-0.85
		c-0.268,0-0.525,0.059-0.775,0.175c-0.25,0.117-0.475,0.342-0.675,0.675l-6.101,9.3c-0.566,0.868-0.983,1.434-1.25,1.7
		C244.533,51.617,244.101,51.75,243.5,51.75z"/>
	<path fill="#FFFFFF" d="M299,61.55c0,1.534-0.225,2.925-0.675,4.175c-0.45,1.25-1.25,2.317-2.399,3.2
		C294.775,69.809,293.2,70.5,291.2,71s-4.55,0.75-7.649,0.75c-3.101,0-5.65-0.25-7.65-0.75s-3.575-1.191-4.725-2.075
		c-1.15-0.883-1.95-1.95-2.4-3.2c-0.45-1.25-0.675-2.641-0.675-4.175V36.8c0-0.633,0.142-1.091,0.425-1.375
		C268.809,35.142,269.267,35,269.9,35h7.85c0.633,0,1.092,0.142,1.375,0.425c0.283,0.284,0.426,0.742,0.426,1.375v22.8
		c0,0.668,0.25,1.227,0.75,1.676s1.616,0.676,3.35,0.676c1.767,0,2.9-0.227,3.4-0.676s0.75-1.008,0.75-1.676V36.8
		c0-0.633,0.141-1.091,0.425-1.375c0.282-0.283,0.741-0.425,1.375-0.425h7.6c0.633,0,1.092,0.142,1.375,0.425
		C298.858,35.708,299,36.167,299,36.8V61.55z M273.601,39.5v20.85c0,2,0.691,3.625,2.075,4.875c1.383,1.25,4.024,1.875,7.925,1.875
		c3.899,0,6.55-0.625,7.95-1.875c1.399-1.25,2.1-2.875,2.1-4.875V39.5h-0.5v20.85c0,1.867-0.667,3.375-2,4.525
		c-1.334,1.15-3.85,1.725-7.55,1.725c-3.7,0-6.209-0.574-7.525-1.725c-1.317-1.15-1.975-2.658-1.975-4.525V39.5H273.601z"/>
	<path fill="#FFFFFF" d="M314.949,71h-7.5c-0.634,0-1.092-0.143-1.375-0.425c-0.283-0.283-0.425-0.741-0.425-1.375V36.8
		c0-0.633,0.142-1.091,0.425-1.375c0.283-0.283,0.741-0.425,1.375-0.425h5.2c0.633,0,1.175,0.1,1.625,0.3
		c0.45,0.2,0.892,0.55,1.325,1.05l9.699,11.1V36.8c0-0.633,0.142-1.091,0.426-1.375C326.007,35.142,326.466,35,327.1,35h7.5
		c0.633,0,1.092,0.142,1.375,0.425c0.282,0.284,0.426,0.742,0.426,1.375v32.4c0,0.634-0.144,1.092-0.426,1.375
		C335.689,70.857,335.232,71,334.6,71h-7.5c-0.634,0-1.093-0.143-1.375-0.425c-0.284-0.283-0.426-0.741-0.426-1.375v-6.15
		l-8.55-10.35v16.5c0,0.634-0.142,1.092-0.425,1.375C316.041,70.857,315.582,71,314.949,71z M312.249,39.9
		c-0.167-0.167-0.3-0.283-0.399-0.35c-0.101-0.066-0.218-0.1-0.351-0.1c-0.134,0-0.267,0.05-0.399,0.15
		c-0.134,0.1-0.2,0.25-0.2,0.45V66.5h0.5V40.15c0-0.033,0.008-0.066,0.024-0.1c0.017-0.033,0.042-0.05,0.075-0.05
		s0.075,0.017,0.125,0.05c0.05,0.034,0.092,0.067,0.125,0.1l18.9,21.2v5.15h0.5v-27h-0.5v21.1L312.249,39.9z"/>
	<path fill="#FFFFFF" d="M344.299,71c-0.634,0-1.093-0.143-1.375-0.425c-0.283-0.283-0.425-0.741-0.425-1.375v-5.95
		c0-0.633,0.142-1.092,0.425-1.375c0.282-0.283,0.741-0.425,1.375-0.425h4.95v-16.8h-4.95c-0.634,0-1.093-0.141-1.375-0.425
		c-0.283-0.283-0.425-0.742-0.425-1.375V36.8c0-0.633,0.142-1.091,0.425-1.375c0.282-0.283,0.741-0.425,1.375-0.425H365.6
		c0.633,0,1.092,0.142,1.375,0.425c0.282,0.284,0.424,0.742,0.424,1.375v6.05c0,0.633-0.142,1.092-0.424,1.375
		c-0.283,0.284-0.742,0.425-1.375,0.425h-4.851v16.8h4.851c0.633,0,1.092,0.142,1.375,0.425c0.282,0.283,0.424,0.742,0.424,1.375
		v5.95c0,0.634-0.142,1.092-0.424,1.375C366.691,70.857,366.23,71,365.6,71H344.299z M362.898,66.5V66h-7.649V40h7.649v-0.5h-15.899
		V40h7.75v26h-7.75v0.5H362.898z"/>
	<path fill="#FFFFFF" d="M390.549,71h-8.101c-0.634,0-1.093-0.143-1.375-0.425c-0.283-0.283-0.425-0.741-0.425-1.375V44.65h-7.351
		c-0.634,0-1.093-0.141-1.375-0.425c-0.284-0.283-0.425-0.742-0.425-1.375V36.8c0-0.633,0.141-1.091,0.425-1.375
		c0.282-0.283,0.741-0.425,1.375-0.425h26.399c0.633,0,1.092,0.142,1.375,0.425c0.283,0.284,0.426,0.742,0.426,1.375v6.05
		c0,0.633-0.143,1.092-0.426,1.375c-0.283,0.284-0.742,0.425-1.375,0.425h-7.35V69.2c0,0.634-0.144,1.092-0.426,1.375
		C391.641,70.857,391.182,71,390.549,71z M386.249,66.5h0.5V40h10.25v-0.5h-21V40h10.25V66.5z"/>
	<path fill="#FFFFFF" d="M424.599,71h-8.101c-0.633,0-1.092-0.143-1.375-0.425c-0.283-0.283-0.425-0.741-0.425-1.375v-6.4
		l-7.649-10.25c-0.768-1.032-1.274-1.933-1.524-2.7s-0.375-1.917-0.375-3.45v-9.6c0-0.633,0.142-1.091,0.425-1.375
		c0.283-0.283,0.741-0.425,1.375-0.425h7.7c0.633,0,1.092,0.142,1.375,0.425c0.282,0.284,0.425,0.742,0.425,1.375V45
		c0,0.333,0.017,0.684,0.05,1.05c0.033,0.367,0.167,0.717,0.4,1.05l2.3,3.6c0.167,0.3,0.342,0.517,0.524,0.649
		c0.184,0.133,0.407,0.199,0.676,0.199h0.5c0.267,0,0.49-0.066,0.675-0.199c0.183-0.134,0.357-0.351,0.524-0.649l2.3-3.6
		c0.232-0.333,0.366-0.683,0.4-1.05c0.032-0.366,0.05-0.716,0.05-1.05v-8.2c0-0.633,0.143-1.091,0.425-1.375
		c0.283-0.283,0.741-0.425,1.375-0.425h7.45c0.634,0,1.091,0.142,1.375,0.425c0.282,0.284,0.425,0.742,0.425,1.375v9.6
		c0,1.534-0.134,2.684-0.399,3.45c-0.267,0.767-0.767,1.667-1.5,2.7l-7.601,10.3V69.2c0,0.634-0.143,1.092-0.425,1.375
		C425.689,70.857,425.231,71,424.599,71z M421.148,57.95c0.767,0,1.44-0.167,2.024-0.5c0.582-0.333,1.142-0.866,1.675-1.601l5-6.75
		c0.399-0.533,0.625-1.125,0.676-1.775c0.05-0.65,0.074-1.342,0.074-2.075V39.5h-0.5v5.75c0,0.7-0.033,1.375-0.101,2.025
		s-0.267,1.192-0.601,1.625l-5,6.75c-0.5,0.633-1.009,1.092-1.524,1.375s-1.092,0.425-1.726,0.425h-1.35
		c-0.566,0-1.134-0.134-1.7-0.4s-1.066-0.731-1.5-1.399l-4.851-6.75c-0.333-0.5-0.533-1.058-0.601-1.675
		c-0.066-0.617-0.1-1.275-0.1-1.975V39.5h-0.5v5.75c0,0.733,0.032,1.434,0.1,2.1c0.066,0.667,0.283,1.25,0.65,1.75l4.85,6.75
		c0.533,0.734,1.093,1.269,1.676,1.602s1.24,0.5,1.976,0.5h0.5v8.55h0.5v-8.55L421.148,57.95L421.148,57.95z"/>
	<path fill="#FFFFFF" d="M476.298,71h-12.2c-4.167,0-7.259-0.833-9.274-2.5c-2.018-1.666-3.024-4.232-3.024-7.7V45.25
		c0-3.466,1.008-6.042,3.024-7.725S459.931,35,464.098,35h12.2c0.633,0,1.091,0.142,1.375,0.425
		c0.282,0.284,0.425,0.742,0.425,1.375v6.05c0,0.633-0.143,1.092-0.425,1.375c-0.284,0.284-0.742,0.425-1.375,0.425h-10.051
		c-1.033,0-1.8,0.208-2.3,0.625s-0.75,1.042-0.75,1.875v11.9c0,0.834,0.25,1.442,0.75,1.825c0.5,0.384,1.267,0.575,2.3,0.575h10.051
		c0.633,0,1.091,0.142,1.375,0.425c0.282,0.283,0.425,0.742,0.425,1.375v5.95c0,0.634-0.143,1.092-0.425,1.375
		C477.389,70.857,476.931,71,476.298,71z M473.548,66h-8.351c-3,0-5-0.45-6-1.35c-1-0.9-1.5-2.435-1.5-4.602v-14
		c0-2.2,0.517-3.758,1.55-4.675s3.017-1.375,5.95-1.375h8.351v-0.5h-8.351c-3.2,0-5.333,0.5-6.399,1.5s-1.601,2.684-1.601,5.05v14
		c0,2.301,0.524,3.95,1.574,4.95c1.051,1,3.191,1.5,6.426,1.5h8.351V66z"/>
	<path fill="#FFFFFF" d="M493.297,71h-7.75c-0.634,0-1.092-0.143-1.375-0.425c-0.283-0.283-0.425-0.741-0.425-1.375V36.8
		c0-0.633,0.142-1.091,0.425-1.375c0.283-0.283,0.741-0.425,1.375-0.425h7.75c0.633,0,1.092,0.142,1.375,0.425
		c0.283,0.284,0.425,0.742,0.425,1.375v10.85h8.352V36.8c0-0.633,0.141-1.091,0.425-1.375c0.282-0.283,0.741-0.425,1.375-0.425h7.75
		c0.633,0,1.091,0.142,1.375,0.425c0.282,0.284,0.425,0.742,0.425,1.375v32.4c0,0.634-0.143,1.092-0.425,1.375
		C514.088,70.857,513.63,71,512.997,71h-7.75c-0.634,0-1.093-0.143-1.375-0.425c-0.284-0.283-0.425-0.741-0.425-1.375V58.1h-8.352
		V69.2c0,0.634-0.142,1.092-0.425,1.375C494.388,70.857,493.93,71,493.297,71z M489.146,66.5h0.5V53.25h19.199V66.5h0.5v-27h-0.5
		v13.25h-19.199V39.5h-0.5V66.5z"/>
	<path fill="#FFFFFF" d="M552.346,61.55c0,1.534-0.225,2.925-0.675,4.175s-1.25,2.317-2.398,3.2
		c-1.15,0.884-2.727,1.575-4.727,2.075s-4.55,0.75-7.648,0.75c-3.102,0-5.65-0.25-7.65-0.75s-3.575-1.191-4.725-2.075
		c-1.15-0.883-1.95-1.95-2.4-3.2s-0.675-2.641-0.675-4.175V36.8c0-0.633,0.142-1.091,0.425-1.375
		c0.283-0.283,0.741-0.425,1.375-0.425h7.85c0.634,0,1.093,0.142,1.375,0.425c0.283,0.284,0.427,0.742,0.427,1.375v22.8
		c0,0.668,0.25,1.227,0.75,1.676s1.615,0.676,3.35,0.676c1.767,0,2.9-0.227,3.4-0.676s0.75-1.008,0.75-1.676V36.8
		c0-0.633,0.141-1.091,0.425-1.375c0.282-0.283,0.741-0.425,1.375-0.425h7.6c0.633,0,1.092,0.142,1.375,0.425
		c0.283,0.284,0.425,0.742,0.425,1.375v24.75H552.346z M526.946,39.5v20.85c0,2,0.69,3.625,2.075,4.875
		c1.383,1.25,4.023,1.875,7.925,1.875c3.898,0,6.55-0.625,7.95-1.875c1.398-1.25,2.1-2.875,2.1-4.875V39.5h-0.5v20.85
		c0,1.867-0.667,3.375-2,4.525c-1.334,1.15-3.85,1.725-7.55,1.725s-6.209-0.574-7.525-1.725c-1.317-1.15-1.975-2.658-1.975-4.525
		V39.5H526.946z"/>
	<path fill="#FFFFFF" d="M568.496,71h-7.7c-0.634,0-1.092-0.143-1.375-0.425c-0.283-0.283-0.425-0.741-0.425-1.375V36.8
		c0-0.633,0.142-1.091,0.425-1.375c0.283-0.283,0.741-0.425,1.375-0.425h16.65c3.731,0,6.308,0.775,7.725,2.325
		c1.416,1.55,2.125,3.559,2.125,6.025v2.3c0,1.4-0.209,2.592-0.625,3.575c-0.417,0.983-1.143,1.692-2.175,2.125
		c1.8,0.2,3.258,0.935,4.375,2.2c1.116,1.269,1.675,2.95,1.675,5.05V69.2c0,0.634-0.143,1.092-0.425,1.375
		c-0.284,0.282-0.742,0.425-1.375,0.425h-7.75c-0.634,0-1.093-0.143-1.375-0.425c-0.284-0.283-0.425-0.741-0.425-1.375v-7.65
		c0-0.731-0.144-1.274-0.427-1.625c-0.282-0.35-0.773-0.524-1.475-0.524h-7v9.801c0,0.634-0.143,1.092-0.425,1.375
		C569.587,70.857,569.129,71,568.496,71z M564.896,66.5V54.9h14.149c1.9,0,3.3,0.408,4.2,1.225c0.898,0.816,1.35,2.042,1.35,3.675
		v6.7h0.5v-6.7c0-1.731-0.5-3.058-1.5-3.975s-2.517-1.375-4.55-1.375h-0.55c1.2-0.366,2-1.042,2.398-2.025
		c0.4-0.981,0.602-2.241,0.602-3.775V45.2c0-1.633-0.468-2.992-1.4-4.075c-0.934-1.083-2.367-1.625-4.3-1.625h-11.399v27H564.896z
		 M575.796,40c1.768,0,3.075,0.483,3.925,1.45c0.852,0.967,1.275,2.217,1.275,3.75v3.5c0,1.833-0.352,3.25-1.05,4.25
		c-0.7,1-2.084,1.5-4.15,1.5h-10.899V40H575.796z M570.296,44v6.4h3.75c0.866,0,1.45-0.225,1.75-0.675
		c0.3-0.45,0.45-1.008,0.45-1.675v-1.7c0-0.667-0.15-1.225-0.45-1.675c-0.3-0.45-0.884-0.675-1.75-0.675H570.296z"/>
	<path fill="#FFFFFF" d="M619.847,71h-12.2c-4.166,0-7.259-0.833-9.274-2.5c-2.018-1.666-3.024-4.232-3.024-7.7V45.25
		c0-3.466,1.008-6.042,3.024-7.725S603.479,35,607.646,35h12.2c0.634,0,1.091,0.142,1.375,0.425
		c0.282,0.284,0.425,0.742,0.425,1.375v6.05c0,0.633-0.143,1.092-0.425,1.375c-0.284,0.284-0.741,0.425-1.375,0.425h-10.051
		c-1.033,0-1.8,0.208-2.3,0.625s-0.75,1.042-0.75,1.875v11.9c0,0.834,0.25,1.442,0.75,1.825c0.5,0.384,1.267,0.575,2.3,0.575h10.051
		c0.634,0,1.091,0.142,1.375,0.425c0.282,0.283,0.425,0.742,0.425,1.375v5.95c0,0.634-0.143,1.092-0.425,1.375
		C620.938,70.857,620.479,71,619.847,71z M617.097,66h-8.351c-3,0-5-0.45-6-1.35c-1-0.9-1.5-2.435-1.5-4.602v-14
		c0-2.2,0.517-3.758,1.55-4.675s3.017-1.375,5.95-1.375h8.351v-0.5h-8.351c-3.2,0-5.333,0.5-6.399,1.5s-1.601,2.684-1.601,5.05v14
		c0,2.301,0.525,3.95,1.575,4.95s3.19,1.5,6.425,1.5h8.351V66z"/>
	<path fill="#FFFFFF" d="M636.846,71h-7.75c-0.634,0-1.092-0.143-1.375-0.425c-0.283-0.283-0.425-0.741-0.425-1.375V36.8
		c0-0.633,0.143-1.091,0.425-1.375c0.283-0.283,0.741-0.425,1.375-0.425h7.75c0.633,0,1.092,0.142,1.375,0.425
		c0.283,0.284,0.426,0.742,0.426,1.375v10.85h8.351V36.8c0-0.633,0.141-1.091,0.425-1.375c0.282-0.283,0.741-0.425,1.375-0.425h7.75
		c0.633,0,1.091,0.142,1.375,0.425c0.282,0.284,0.425,0.742,0.425,1.375v32.4c0,0.634-0.143,1.092-0.425,1.375
		C657.638,70.857,657.18,71,656.547,71h-7.75c-0.634,0-1.093-0.143-1.375-0.425c-0.284-0.283-0.425-0.741-0.425-1.375V58.1h-8.351
		V69.2c0,0.634-0.143,1.092-0.426,1.375C637.938,70.857,637.479,71,636.846,71z M632.695,66.5h0.5V53.25h19.199V66.5h0.5v-27h-0.5
		v13.25h-19.199V39.5h-0.5V66.5z"/>
</g>
<path fill="#01BF00" d="M659,68h-13v2c0,0,0.39,0.958,2.027,1c1.637,0.042,9.82,0,9.82,0S659,70.999,659,69.51V68L659,68z"/>
<rect x="646" y="67" fill="#010733" width="13" height="1"/>
</svg>
