<?xml version="1.0" encoding="utf-8"?>
<!-- Generator: Adobe Illustrator 16.0.0, SVG Export Plug-In . SVG Version: 6.00 Build 0)  -->
<!DOCTYPE svg PUBLIC "-//W3C//DTD SVG 1.1//EN" "http://www.w3.org/Graphics/SVG/1.1/DTD/svg11.dtd">
<svg version="1.1" id="Layer_1" xmlns="http://www.w3.org/2000/svg" xmlns:xlink="http://www.w3.org/1999/xlink" x="0px" y="0px"
	 width="438.283px" height="120px" viewBox="0 0 438.283 120" enable-background="new 0 0 438.283 120" xml:space="preserve">
<g>
	<defs>
		<rect id="SVGID_1_" width="438.283" height="120"/>
	</defs>
	<clipPath id="SVGID_2_">
		<use xlink:href="#SVGID_1_"  overflow="visible"/>
	</clipPath>
	<g clip-path="url(#SVGID_2_)">
		
			<linearGradient id="SVGID_3_" gradientUnits="userSpaceOnUse" x1="60.3188" y1="80.1045" x2="60.3188" y2="720.6248" gradientTransform="matrix(0 1 -1 0 706.8447 -150.8833)">
			<stop  offset="0" style="stop-color:#FFFFFF"/>
			<stop  offset="0.3117" style="stop-color:#FDFEFF"/>
			<stop  offset="0.449" style="stop-color:#F6FBFF"/>
			<stop  offset="0.552" style="stop-color:#E9F5FF"/>
			<stop  offset="0.638" style="stop-color:#D7EEFF"/>
			<stop  offset="0.7133" style="stop-color:#C0E3FF"/>
			<stop  offset="0.7812" style="stop-color:#A3D7FF"/>
			<stop  offset="0.8435" style="stop-color:#81C8FF"/>
			<stop  offset="0.9014" style="stop-color:#59B7FF"/>
			<stop  offset="0.9537" style="stop-color:#2DA4FF"/>
			<stop  offset="1" style="stop-color:#0090FF"/>
		</linearGradient>
		<rect x="-5.423" y="-314.227" fill="url(#SVGID_3_)" width="556.592" height="447.326"/>
		<g opacity="0.3">
			<g>
				<g>
					<polygon fill="#0082F4" points="-5.423,70.956 -5.423,-280.732 9.311,-265.978 50.421,-224.948 120.658,-154.71 
						123.49,-151.88 170.461,-104.928 160.354,-94.819 					"/>
				</g>
				<polygon opacity="0.3" fill="#0082F4" points="-5.423,-28.628 -5.423,-314.227 280.145,-314.227 120.658,-154.71 
					110.55,-144.582 				"/>
				<g>
					<polygon fill="#008FDB" points="-5.423,-169.124 -5.423,-314.227 139.659,-314.227 50.421,-224.948 40.272,-214.841 					"/>
				</g>
			</g>
			<g opacity="0.4">
				<g>
					<polygon fill="#0082F4" points="0.319,133.099 -5.423,133.099 -5.423,-260.496 -0.777,-255.871 40.272,-214.841 
						110.55,-144.582 113.361,-141.771 160.354,-94.819 194.296,-60.847 					"/>
				</g>
				<polygon opacity="0.3" fill="#0082F4" points="-5.423,-22.987 -5.423,-314.227 285.806,-314.227 123.49,-151.88 
					113.361,-141.771 				"/>
				<g>
					<polygon fill="#008FDB" points="-5.423,-251.246 -5.423,-314.227 57.558,-314.227 9.311,-265.978 -0.777,-255.871 					"/>
				</g>
			</g>
		</g>
		<g>
			<g>
				<g>
					<polygon fill="#0082F4" points="551.129,-151.042 551.129,59.791 445.703,-45.616 					"/>
				</g>
				<polygon opacity="0.3" fill="#0082F4" points="551.129,-99.285 551.129,133.119 441.196,133.119 379.949,71.854 				"/>
				<g>
					<polygon fill="#008FDB" points="551.129,-26.276 551.129,133.119 511.973,133.119 451.841,73.01 					"/>
				</g>
			</g>
			<g opacity="0.4">
				<g>
					<polygon fill="#0082F4" points="551.129,-186.311 551.129,49.284 534.658,32.777 475.367,-26.476 433.34,-68.522 					"/>
				</g>
				<polygon opacity="0.3" fill="#0082F4" points="551.129,-102.256 551.129,133.119 337.244,133.119 326.518,122.374 
					475.367,-26.476 				"/>
				<g>
					<polygon fill="#008FDB" points="551.129,16.329 551.129,133.119 452.241,133.119 443.309,124.167 534.658,32.777 					"/>
				</g>
			</g>
		</g>
		<g>
			<g>
				<g>
					<polygon fill="#0082F4" points="-5.441,-33.454 -5.441,-241.755 98.748,-137.604 					"/>
				</g>
				<polygon opacity="0.3" fill="#0082F4" points="-5.441,-84.573 -5.441,-314.227 103.194,-314.227 163.703,-253.677 				"/>
				<g>
					<polygon fill="#008FDB" points="-5.441,-156.724 -5.441,-314.227 33.254,-314.227 92.667,-254.813 					"/>
				</g>
			</g>
			<g opacity="0.4">
				<g>
					<polygon fill="#0082F4" points="-5.441,1.375 -5.441,-231.348 10.827,-215.099 69.441,-156.525 110.97,-115.017 					"/>
				</g>
				<polygon opacity="0.3" fill="#0082F4" points="-5.441,-81.662 -5.441,-314.227 205.899,-314.227 216.496,-303.581 
					69.441,-156.525 				"/>
				<g>
					<polygon fill="#008FDB" points="-5.441,-198.811 -5.441,-314.227 92.268,-314.227 101.081,-305.354 10.827,-215.099 					"/>
				</g>
			</g>
		</g>
		<g opacity="0.5">
			<g>
				<g>
					<polygon fill="#0082F4" points="-5.383,-238.307 -5.423,37.263 132.382,-100.502 					"/>
				</g>
				<polygon opacity="0.3" fill="#0082F4" points="-5.383,-170.64 -5.423,133.119 138.283,133.119 218.329,53.072 				"/>
				<g>
					<polygon fill="#008FDB" points="-5.383,-75.242 -5.423,133.119 45.755,133.119 124.368,54.528 					"/>
				</g>
			</g>
			<g opacity="0.4">
				<g>
					<polygon fill="#0082F4" points="-5.383,-284.381 -5.423,23.526 16.109,1.974 93.644,-75.461 148.611,-130.407 					"/>
				</g>
				<polygon opacity="0.3" fill="#0082F4" points="-5.383,-174.547 -5.423,133.119 274.163,133.119 288.198,119.083 93.644,-75.461 
									"/>
				<g>
					<polygon fill="#008FDB" points="-5.383,-19.538 -5.423,133.119 123.829,133.119 135.552,121.396 16.109,1.974 					"/>
				</g>
			</g>
		</g>
	</g>
</g>
</svg>
