<?xml version="1.0" encoding="utf-8"?>
<!-- Generator: Adobe Illustrator 16.0.0, SVG Export Plug-In . SVG Version: 6.00 Build 0)  -->
<!DOCTYPE svg PUBLIC "-//W3C//DTD SVG 1.1//EN" "http://www.w3.org/Graphics/SVG/1.1/DTD/svg11.dtd">
<svg version="1.1" id="Layer_1" xmlns="http://www.w3.org/2000/svg" xmlns:xlink="http://www.w3.org/1999/xlink" x="0px" y="0px"
	 width="578px" height="516px" viewBox="186.5 22.5 578 516" enable-background="new 186.5 22.5 578 516" xml:space="preserve">
<rect x="471.873" y="48.428" fill="#F21122" width="28" height="434.297"/>
<rect x="320.127" y="138.751" fill="#F21122" width="338.71" height="24.388"/>
<path fill="#8DD809" d="M607.353,185.271l-19.872-8.579c0,0-7.677-35.226-36.128-13.549c0,0-30.71,36.132-51.485,36.132
	c0,0-23.029,0.902-37.936-14.907c0,0-46.515-36.846-80.838-6.68l-31.613,35.587c0,0-4.966,7.225-9.029,8.578
	c0,0,6.323,9.03,12.191,9.03c0,0,4.966,6.774,11.74,0c0,0,3.613,13.247,14,3.008l7.226,0.6l3.613,3.281c0,0-5.873,6.205-11.29,9.366
	c-5.417,3.162-16.26,6.324-16.26,6.324l-7.226,3.162l-24.838,4.549c0,0-23.035,0.873-18.515,15.774l9.029,7.226l4.515,14.45
	l3.682,9.456h4.45l2.711,5.897h4.063c0,0,19.873,2.711,27.549-4.063c0,0,17.613-0.451,22.583-15.358c0,0,50.579-7.676,54.642-12.191
	c0,0,3.162-1.353,3.162,3.613c0,4.971-2.26,13.549,3.612,13.549c0,0,4.064,22.584,10.388,10.388c0,0,1.353,9.937,10.387,8.132
	l28,21.226h7.677c0,0-0.907,12.647,6.318,5.417l5.873,9.485c0,0,0-11.74,0-26.191c0,0,16.711-54.642,14.451-62.774
	c0,0-2.26-8.856-3.162-10.075c-0.907-1.214,22.128-29.665,28.902-44.567l14.901-19.421l36.128-0.451l-22.579-6.774L607.353,185.271z
	"/>
<path fill="#8DD809" d="M661.098,142.369c0,0,6.775-5.02,14.451-8.157c7.677-3.137,5.873,8.157,5.873,8.157
	s1.804,17.613-22.584,26.191c0,0,0.451,4.515,0,4.971c-0.451,0.451,11.384,0,11.384,0l19.327,13.098l-10.387,23.936
	c0,0-22.039-5.169-23.664-10.486c-1.631-5.317-3.34-14.803,0-20.675c0,0,1.536-9.158-7.498-7.29c0,0-9.029,1.417-17.613,9.094
	l-11.744,7.676l2.71,5.422c0,0,6.774-0.902,11.29,2.26l3.612,0.451c0,0,3.162,3.613-4.063,3.162c0,0,3.612,15.358,0,18.515
	l-3.162-5.417l-4.063,12.642c0,0-0.451-12.191-6.323-11.74c0,0-4.516-0.451-4.966,4.515c0,0-3.613-0.451-2.711-12.647l-2.706-1.353
	c0,0,3.162-8.127,6.318-9.48l-0.451-4.063l-32.52-4.064l3.162-4.063l26.191,2.71c0,0,14.901,0.456,24.615-18.063L661.098,142.369z"
	/>
<path fill="#020202" d="M754,134.849c0,0-127.031-32.316-128.266,177.667c0,0-13.554,64.056-41.176,88.04
	S430.647,512.398,430.647,512.398s160.009-67.283,198.931-114.591c0,0,31.744-38.899,29.333-108.937
	C658.911,288.871,664.833,164.198,754,134.849z"/>
<path fill="#020202" d="M220.647,137.849c0,0,127.031-32.316,128.266,177.667c0,0,13.554,64.056,41.176,88.04
	S544,515.398,544,515.398s-160.009-67.283-198.931-114.591c0,0-31.744-38.899-29.333-108.937
	C315.736,291.871,309.814,167.198,220.647,137.849z"/>
</svg>
