<?xml version="1.0" encoding="utf-8"?>
<!-- Generator: Adobe Illustrator 16.0.0, SVG Export Plug-In . SVG Version: 6.00 Build 0)  -->
<!DOCTYPE svg PUBLIC "-//W3C//DTD SVG 1.1//EN" "http://www.w3.org/Graphics/SVG/1.1/DTD/svg11.dtd">
<svg version="1.1" id="Layer_1" xmlns="http://www.w3.org/2000/svg" xmlns:xlink="http://www.w3.org/1999/xlink" x="0px" y="0px"
	 width="668px" height="100px" viewBox="0 0 668 100" enable-background="new 0 0 668 100" xml:space="preserve">
<rect x="47.351" y="5.56" fill="#F21122" width="4.937" height="76.561"/>
<rect x="20.6" y="21.483" fill="#F21122" width="59.71" height="4.299"/>
<path fill="#8DD809" d="M71.234,29.684l-3.503-1.512c0,0-1.353-6.21-6.369-2.389c0,0-5.414,6.37-9.076,6.37
	c0,0-4.06,0.159-6.688-2.628c0,0-8.2-6.496-14.251-1.177l-5.573,6.273c0,0-0.875,1.274-1.592,1.512c0,0,1.115,1.592,2.149,1.592
	c0,0,0.875,1.194,2.07,0c0,0,0.637,2.335,2.468,0.53l1.274,0.106l0.637,0.579c0,0-1.035,1.094-1.99,1.651
	c-0.955,0.558-2.866,1.115-2.866,1.115l-1.274,0.557l-4.378,0.803c0,0-4.061,0.153-3.264,2.78l1.592,1.273l0.796,2.548l0.649,1.667
	h0.784l0.478,1.039h0.716c0,0,3.503,0.479,4.856-0.717c0,0,3.105-0.078,3.981-2.708c0,0,8.917-1.353,9.633-2.148
	c0,0,0.558-0.239,0.558,0.637c0,0.876-0.398,2.389,0.637,2.389c0,0,0.717,3.981,1.831,1.831c0,0,0.239,1.752,1.832,1.434
	l4.936,3.742h1.353c0,0-0.16,2.23,1.114,0.955l1.036,1.672c0,0,0-2.068,0-4.617c0,0,2.946-9.632,2.547-11.066
	c0,0-0.398-1.562-0.558-1.776c-0.16-0.214,3.901-5.229,5.095-7.857l2.627-3.423l6.369-0.08l-3.98-1.194L71.234,29.684z"/>
<path fill="#8DD809" d="M80.709,22.121c0,0,1.194-0.886,2.547-1.438c1.354-0.553,1.035,1.438,1.035,1.438s0.318,3.105-3.981,4.617
	c0,0,0.08,0.796,0,0.875c-0.08,0.08,2.007,0,2.007,0l3.407,2.31l-1.831,4.219c0,0-3.885-0.911-4.172-1.848
	c-0.288-0.938-0.589-2.61,0-3.645c0,0,0.271-1.615-1.322-1.285c0,0-1.592,0.249-3.105,1.603l-2.07,1.353l0.478,0.956
	c0,0,1.194-0.159,1.991,0.398l0.637,0.08c0,0,0.558,0.636-0.716,0.557c0,0,0.637,2.707,0,3.264l-0.558-0.955l-0.716,2.228
	c0,0-0.08-2.148-1.115-2.069c0,0-0.796-0.079-0.875,0.796c0,0-0.637-0.08-0.478-2.229l-0.477-0.238c0,0,0.558-1.433,1.114-1.672
	l-0.079-0.716l-5.733-0.716l0.558-0.716l4.617,0.478c0,0,2.627,0.081,4.34-3.185L80.709,22.121z"/>
<path fill="#020202" d="M97.086,20.795c0,0-22.394-5.697-22.612,31.32c0,0-2.389,11.293-7.259,15.521
	c-4.869,4.229-27.132,19.717-27.132,19.717S68.291,75.492,75.152,67.15c0,0,5.596-6.857,5.171-19.203
	C80.323,47.947,81.368,25.969,97.086,20.795z"/>
<path fill="#020202" d="M3.063,21.324c0,0,22.394-5.696,22.612,31.321c0,0,2.389,11.293,7.259,15.521
	c4.869,4.227,27.132,19.715,27.132,19.715S31.858,76.02,24.997,67.68c0,0-5.596-6.857-5.171-19.204
	C19.826,48.476,18.782,26.498,3.063,21.324z"/>
<text transform="matrix(1 0 0 1 112 71)" font-family="'BungeeInline-Regular'" font-size="50">Community Church</text>
</svg>
