<?xml version="1.0" encoding="utf-8"?>
<!-- Generator: Adobe Illustrator 16.0.0, SVG Export Plug-In . SVG Version: 6.00 Build 0)  -->
<!DOCTYPE svg PUBLIC "-//W3C//DTD SVG 1.1//EN" "http://www.w3.org/Graphics/SVG/1.1/DTD/svg11.dtd">
<svg version="1.1" id="Layer_1" xmlns="http://www.w3.org/2000/svg" xmlns:xlink="http://www.w3.org/1999/xlink" x="0px" y="0px"
	 width="668px" height="100px" viewBox="0 0 668 100" enable-background="new 0 0 668 100" xml:space="preserve">
<rect y="123.334" fill="#010733" width="668" height="100"/>
<rect x="47.351" y="5.56" fill="#F40C0C" width="4.937" height="76.561"/>
<rect x="20.6" y="21.483" fill="#F40C0C" width="59.71" height="4.299"/>
<path fill="#8DD809" d="M71.234,29.684l-3.503-1.512c0,0-1.353-6.21-6.369-2.389c0,0-5.414,6.37-9.076,6.37
	c0,0-4.06,0.159-6.688-2.628c0,0-8.2-6.496-14.251-1.177l-5.573,6.273c0,0-0.875,1.274-1.592,1.512c0,0,1.115,1.592,2.149,1.592
	c0,0,0.875,1.194,2.07,0c0,0,0.637,2.335,2.468,0.53l1.274,0.106l0.637,0.579c0,0-1.035,1.094-1.99,1.651
	c-0.955,0.558-2.866,1.115-2.866,1.115l-1.274,0.557l-4.378,0.803c0,0-4.061,0.153-3.264,2.78l1.592,1.273l0.796,2.548l0.649,1.667
	h0.784l0.478,1.039h0.716c0,0,3.503,0.479,4.856-0.717c0,0,3.105-0.078,3.981-2.708c0,0,8.917-1.354,9.633-2.148
	c0,0,0.558-0.239,0.558,0.637s-0.398,2.389,0.637,2.389c0,0,0.717,3.98,1.831,1.831c0,0,0.239,1.752,1.832,1.434l4.936,3.742h1.353
	c0,0-0.16,2.229,1.114,0.955l1.036,1.672c0,0,0-2.067,0-4.617c0,0,2.946-9.632,2.547-11.066c0,0-0.398-1.562-0.558-1.776
	c-0.16-0.214,3.901-5.229,5.095-7.857l2.627-3.423l6.369-0.08l-3.98-1.194L71.234,29.684z"/>
<path fill="#8DD809" d="M80.709,22.121c0,0,1.194-0.886,2.547-1.438c1.354-0.553,1.035,1.438,1.035,1.438s0.318,3.105-3.981,4.617
	c0,0,0.08,0.796,0,0.875c-0.08,0.08,2.007,0,2.007,0l3.407,2.31l-1.831,4.219c0,0-3.885-0.911-4.172-1.848
	c-0.288-0.938-0.589-2.61,0-3.645c0,0,0.271-1.615-1.322-1.285c0,0-1.592,0.249-3.105,1.603l-2.07,1.353l0.478,0.956
	c0,0,1.194-0.159,1.991,0.398l0.637,0.08c0,0,0.558,0.636-0.716,0.557c0,0,0.637,2.707,0,3.264l-0.558-0.955l-0.716,2.228
	c0,0-0.08-2.148-1.115-2.069c0,0-0.796-0.079-0.875,0.796c0,0-0.637-0.08-0.478-2.229l-0.477-0.238c0,0,0.558-1.433,1.114-1.672
	L72.43,30.72l-5.733-0.716l0.558-0.716l4.617,0.478c0,0,2.627,0.081,4.34-3.185L80.709,22.121z"/>
<path fill="#FFFFFF" d="M97.086,20.795c0,0-22.394-5.697-22.612,31.32c0,0-2.389,11.293-7.259,15.521
	c-4.869,4.229-27.132,19.718-27.132,19.718S68.291,75.492,75.152,67.15c0,0,5.596-6.857,5.171-19.203
	C80.323,47.947,81.368,25.969,97.086,20.795z"/>
<path fill="#FFFFFF" d="M3.063,21.324c0,0,22.394-5.696,22.612,31.32c0,0,2.389,11.293,7.259,15.521
	c4.869,4.228,27.132,19.715,27.132,19.715s-28.208-11.86-35.069-20.2c0,0-5.596-6.854-5.171-19.204
	C19.826,48.476,18.782,26.498,3.063,21.324z"/>
<g>
	<path fill="#FFFFFF" d="M133.979-116.15h-12.2c-4.167,0-7.259-0.833-9.275-2.5c-2.017-1.666-3.025-4.232-3.025-7.7v-15.55
		c0-3.466,1.008-6.042,3.025-7.725c2.016-1.683,5.108-2.525,9.275-2.525h12.2c0.633,0,1.091,0.142,1.375,0.425
		c0.282,0.284,0.425,0.742,0.425,1.375v6.05c0,0.633-0.143,1.092-0.425,1.375c-0.284,0.284-0.742,0.425-1.375,0.425h-10.05
		c-1.034,0-1.8,0.208-2.3,0.625s-0.75,1.042-0.75,1.875v11.9c0,0.834,0.25,1.442,0.75,1.825c0.5,0.384,1.267,0.575,2.3,0.575h10.05
		c0.633,0,1.091,0.142,1.375,0.425c0.282,0.283,0.425,0.742,0.425,1.375v5.95c0,0.634-0.143,1.092-0.425,1.375
		C135.07-116.292,134.612-116.15,133.979-116.15z M131.229-121.15h-8.35c-3,0-5-0.45-6-1.35s-1.5-2.436-1.5-4.603v-14
		c0-2.2,0.517-3.758,1.55-4.675c1.033-0.917,3.016-1.375,5.95-1.375h8.35v-0.5h-8.35c-3.2,0-5.333,0.5-6.4,1.5s-1.6,2.684-1.6,5.05
		v14c0,2.302,0.525,3.95,1.575,4.95c1.05,1,3.191,1.5,6.425,1.5h8.35V-121.15z"/>
	<path fill="#FFFFFF" d="M171.68-125.6c0,1.534-0.226,2.925-0.675,4.175c-0.45,1.25-1.25,2.317-2.4,3.2
		c-1.15,0.884-2.733,1.575-4.75,2.075c-2.018,0.5-4.575,0.75-7.675,0.75c-3.101,0-5.667-0.25-7.7-0.75s-3.625-1.191-4.775-2.075
		c-1.149-0.883-1.949-1.95-2.399-3.2c-0.45-1.25-0.675-2.641-0.675-4.175v-17.05c0-1.533,0.225-2.925,0.675-4.175
		c0.45-1.25,1.25-2.325,2.399-3.225c1.15-0.9,2.742-1.6,4.775-2.1s4.6-0.75,7.7-0.75c3.1,0,5.657,0.25,7.675,0.75
		c2.017,0.5,3.6,1.2,4.75,2.1c1.15,0.9,1.95,1.975,2.4,3.225c0.449,1.25,0.675,2.642,0.675,4.175V-125.6z M166.229-126.75v-14.75
		c0-2-0.717-3.625-2.15-4.875s-4.1-1.875-8-1.875c-3.899,0-6.55,0.625-7.949,1.875c-1.4,1.25-2.101,2.875-2.101,4.875v14.75
		c0,2,0.7,3.625,2.101,4.875c1.399,1.25,4.05,1.875,7.949,1.875c3.9,0,6.566-0.625,8-1.875S166.229-124.75,166.229-126.75z
		 M146.529-126.75v-14.75c0-1.866,0.667-3.375,2-4.525s3.851-1.725,7.55-1.725c3.7,0,6.233,0.575,7.601,1.725
		c1.366,1.15,2.05,2.659,2.05,4.525v14.75c0,1.867-0.684,3.375-2.05,4.522c-1.367,1.15-3.9,1.728-7.601,1.728
		c-3.699,0-6.217-0.575-7.55-1.728C147.196-123.375,146.529-124.882,146.529-126.75z M151.979-127.4c0,0.667,0.25,1.225,0.75,1.675
		c0.5,0.45,1.65,0.675,3.45,0.675c1.8,0,2.95-0.225,3.45-0.675c0.5-0.45,0.75-1.008,0.75-1.675v-13.45
		c0-0.633-0.25-1.175-0.75-1.625c-0.5-0.45-1.65-0.675-3.45-0.675c-1.8,0-2.95,0.225-3.45,0.675c-0.5,0.45-0.75,0.992-0.75,1.625
		V-127.4z"/>
	<path fill="#FFFFFF" d="M187.279-116.15h-7.45c-0.634,0-1.092-0.143-1.375-0.425c-0.283-0.283-0.425-0.741-0.425-1.375v-32.4
		c0-0.633,0.142-1.091,0.425-1.375c0.283-0.283,0.741-0.425,1.375-0.425h8.05c0.533,0,0.976,0.117,1.325,0.35
		c0.35,0.233,0.675,0.617,0.975,1.15l4.5,8.15c0.167,0.3,0.309,0.517,0.426,0.65c0.116,0.134,0.274,0.2,0.475,0.2h0.45
		c0.2,0,0.357-0.066,0.475-0.2c0.116-0.133,0.258-0.35,0.425-0.65l4.45-8.15c0.3-0.533,0.625-0.917,0.976-1.15
		c0.35-0.233,0.791-0.35,1.324-0.35h8.101c0.633,0,1.091,0.142,1.375,0.425c0.28,0.283,0.423,0.742,0.423,1.375v32.4
		c0,0.634-0.143,1.092-0.425,1.375c-0.284,0.282-0.742,0.425-1.375,0.425h-7.7c-0.634,0-1.092-0.143-1.375-0.425
		c-0.283-0.283-0.425-0.741-0.425-1.375v-17.601l-2.95,5.45c-0.3,0.567-0.658,0.976-1.075,1.226s-0.942,0.375-1.575,0.375h-2
		c-0.633,0-1.158-0.125-1.574-0.375c-0.418-0.25-0.775-0.656-1.075-1.226l-2.95-5.45v17.601c0,0.634-0.143,1.092-0.425,1.375
		C188.37-116.292,187.912-116.15,187.279-116.15z M195.629-135.4c-0.6,0-1.033-0.133-1.3-0.4c-0.268-0.266-0.684-0.832-1.25-1.7
		l-6.1-9.3c-0.2-0.333-0.434-0.558-0.7-0.675c-0.268-0.116-0.534-0.175-0.8-0.175h-0.851c-0.434,0-0.759,0.125-0.975,0.375
		c-0.218,0.25-0.325,0.642-0.325,1.175v25.45h0.5v-25.45c0-0.266,0.05-0.508,0.15-0.725c0.1-0.217,0.316-0.325,0.649-0.325h0.75
		c0.233,0,0.441,0.034,0.625,0.1c0.183,0.067,0.375,0.267,0.575,0.6l6.1,9.2c0.601,0.9,1.059,1.517,1.375,1.85
		c0.316,0.334,0.842,0.5,1.575,0.5s1.258-0.166,1.575-0.5c0.316-0.333,0.775-0.95,1.375-1.85l6.1-9.2
		c0.2-0.333,0.383-0.533,0.551-0.6c0.166-0.066,0.366-0.1,0.6-0.1h0.751c0.333,0,0.558,0.108,0.675,0.325
		c0.116,0.217,0.175,0.458,0.175,0.725v25.45h0.5v-25.45c0-0.533-0.108-0.925-0.324-1.175c-0.218-0.25-0.559-0.375-1.025-0.375
		h-0.85c-0.268,0-0.525,0.059-0.775,0.175c-0.25,0.117-0.475,0.342-0.675,0.675l-6.101,9.3c-0.566,0.868-0.983,1.434-1.25,1.7
		C196.662-135.533,196.229-135.4,195.629-135.4z"/>
	<path fill="#FFFFFF" d="M229.729-116.15h-7.45c-0.634,0-1.092-0.143-1.375-0.425c-0.283-0.283-0.425-0.741-0.425-1.375v-32.4
		c0-0.633,0.142-1.091,0.425-1.375c0.283-0.283,0.741-0.425,1.375-0.425h8.05c0.533,0,0.976,0.117,1.325,0.35
		c0.35,0.233,0.675,0.617,0.975,1.15l4.5,8.15c0.167,0.3,0.309,0.517,0.426,0.65c0.116,0.134,0.274,0.2,0.475,0.2h0.45
		c0.2,0,0.357-0.066,0.475-0.2c0.116-0.133,0.258-0.35,0.425-0.65l4.45-8.15c0.3-0.533,0.625-0.917,0.976-1.15
		c0.35-0.233,0.791-0.35,1.324-0.35h8.101c0.633,0,1.091,0.142,1.375,0.425c0.282,0.284,0.425,0.742,0.425,1.375v32.4
		c0,0.634-0.143,1.092-0.425,1.375c-0.286,0.282-0.744,0.425-1.377,0.425h-7.7c-0.634,0-1.092-0.143-1.375-0.425
		c-0.283-0.283-0.425-0.741-0.425-1.375v-17.601l-2.95,5.45c-0.3,0.567-0.658,0.976-1.075,1.226s-0.942,0.375-1.575,0.375h-2
		c-0.633,0-1.158-0.125-1.574-0.375c-0.418-0.25-0.775-0.656-1.075-1.226l-2.95-5.45v17.601c0,0.634-0.143,1.092-0.425,1.375
		C230.82-116.292,230.362-116.15,229.729-116.15z M238.079-135.4c-0.6,0-1.033-0.133-1.3-0.4c-0.268-0.266-0.684-0.832-1.25-1.7
		l-6.1-9.3c-0.2-0.333-0.434-0.558-0.7-0.675c-0.268-0.116-0.534-0.175-0.8-0.175h-0.85c-0.434,0-0.759,0.125-0.975,0.375
		c-0.218,0.25-0.325,0.642-0.325,1.175v25.45h0.5v-25.45c0-0.266,0.05-0.508,0.15-0.725c0.1-0.217,0.316-0.325,0.649-0.325h0.75
		c0.233,0,0.441,0.034,0.625,0.1c0.183,0.067,0.375,0.267,0.575,0.6l6.1,9.2c0.601,0.9,1.059,1.517,1.375,1.85
		c0.316,0.334,0.842,0.5,1.575,0.5c0.733,0,1.258-0.166,1.575-0.5c0.316-0.333,0.775-0.95,1.375-1.85l6.1-9.2
		c0.2-0.333,0.383-0.533,0.551-0.6c0.166-0.066,0.366-0.1,0.6-0.1h0.75c0.333,0,0.558,0.108,0.675,0.325
		c0.116,0.217,0.175,0.458,0.175,0.725v25.45h0.5v-25.45c0-0.533-0.108-0.925-0.324-1.175c-0.218-0.25-0.559-0.375-1.025-0.375
		h-0.85c-0.268,0-0.525,0.059-0.775,0.175c-0.25,0.117-0.475,0.342-0.675,0.675l-6.101,9.3c-0.566,0.868-0.983,1.434-1.25,1.7
		C239.112-135.533,238.68-135.4,238.079-135.4z"/>
	<path fill="#FFFFFF" d="M293.579-125.6c0,1.534-0.225,2.925-0.675,4.175c-0.45,1.25-1.25,2.317-2.399,3.2
		c-1.151,0.884-2.726,1.575-4.726,2.075s-4.55,0.75-7.649,0.75c-3.101,0-5.65-0.25-7.65-0.75s-3.575-1.191-4.725-2.075
		c-1.15-0.883-1.95-1.95-2.4-3.2c-0.45-1.25-0.675-2.641-0.675-4.175v-24.75c0-0.633,0.142-1.091,0.425-1.375
		c0.283-0.283,0.741-0.425,1.374-0.425h7.85c0.633,0,1.092,0.142,1.375,0.425c0.283,0.284,0.426,0.742,0.426,1.375v22.8
		c0,0.668,0.25,1.228,0.75,1.676c0.5,0.449,1.616,0.677,3.35,0.677c1.767,0,2.9-0.228,3.4-0.677c0.5-0.448,0.75-1.008,0.75-1.676
		v-22.8c0-0.633,0.141-1.091,0.425-1.375c0.282-0.283,0.741-0.425,1.375-0.425h7.6c0.633,0,1.092,0.142,1.375,0.425
		c0.282,0.283,0.424,0.742,0.424,1.375V-125.6L293.579-125.6z M268.18-147.65v20.85c0,2,0.691,3.625,2.075,4.875
		c1.383,1.25,4.024,1.875,7.925,1.875c3.899,0,6.55-0.625,7.95-1.875c1.399-1.25,2.1-2.875,2.1-4.875v-20.85h-0.5v20.85
		c0,1.867-0.667,3.375-2,4.525c-1.334,1.15-3.85,1.725-7.55,1.725c-3.7,0-6.209-0.574-7.525-1.725
		c-1.317-1.15-1.975-2.658-1.975-4.525v-20.85H268.18z"/>
	<path fill="#FFFFFF" d="M309.528-116.15h-7.5c-0.634,0-1.092-0.143-1.375-0.425c-0.283-0.283-0.425-0.741-0.425-1.375v-32.4
		c0-0.633,0.142-1.091,0.425-1.375c0.283-0.283,0.741-0.425,1.375-0.425h5.201c0.633,0,1.175,0.1,1.625,0.3
		c0.448,0.2,0.892,0.55,1.323,1.05l9.699,11.1v-10.65c0-0.633,0.144-1.091,0.426-1.375c0.283-0.283,0.742-0.425,1.376-0.425h7.5
		c0.636,0,1.095,0.142,1.375,0.425c0.283,0.284,0.429,0.742,0.429,1.375v32.4c0,0.634-0.146,1.092-0.429,1.375
		c-0.285,0.282-0.742,0.425-1.375,0.425h-7.5c-0.634,0-1.093-0.143-1.375-0.425c-0.282-0.283-0.426-0.741-0.426-1.375v-6.15
		l-8.55-10.35v16.5c0,0.634-0.142,1.092-0.425,1.375C310.62-116.292,310.161-116.15,309.528-116.15z M306.828-147.25
		c-0.167-0.167-0.3-0.283-0.399-0.35c-0.101-0.066-0.218-0.1-0.351-0.1c-0.134,0-0.267,0.05-0.399,0.15
		c-0.134,0.1-0.199,0.25-0.199,0.45v26.45h0.5V-147c0-0.033,0.008-0.066,0.023-0.1c0.019-0.033,0.042-0.05,0.075-0.05
		s0.075,0.017,0.125,0.05c0.05,0.034,0.092,0.067,0.125,0.1l18.9,21.2v5.15h0.5v-27h-0.5v21.1L306.828-147.25z"/>
	<path fill="#FFFFFF" d="M338.877-116.15c-0.633,0-1.092-0.143-1.375-0.425c-0.283-0.283-0.424-0.741-0.424-1.375v-5.95
		c0-0.633,0.141-1.092,0.424-1.375c0.283-0.283,0.742-0.425,1.375-0.425h4.951v-16.8h-4.951c-0.633,0-1.092-0.141-1.375-0.425
		c-0.283-0.283-0.424-0.742-0.424-1.375v-6.05c0-0.633,0.141-1.091,0.424-1.375c0.283-0.283,0.742-0.425,1.375-0.425h21.301
		c0.636,0,1.095,0.142,1.375,0.425c0.283,0.284,0.426,0.742,0.426,1.375v6.05c0,0.633-0.143,1.092-0.426,1.375
		c-0.28,0.284-0.739,0.425-1.375,0.425h-4.85v16.8h4.85c0.636,0,1.095,0.142,1.375,0.425c0.283,0.283,0.426,0.742,0.426,1.375v5.95
		c0,0.634-0.143,1.092-0.426,1.375c-0.283,0.282-0.744,0.425-1.375,0.425H338.877z M357.477-120.65v-0.5h-7.647v-26h7.647v-0.5
		h-15.897v0.5h7.75v26h-7.75v0.5H357.477z"/>
	<path fill="#FFFFFF" d="M385.127-116.15h-8.1c-0.636,0-1.095-0.143-1.375-0.425c-0.283-0.283-0.427-0.741-0.427-1.375v-24.55
		h-7.352c-0.633,0-1.092-0.141-1.375-0.425c-0.283-0.283-0.424-0.742-0.424-1.375v-6.05c0-0.633,0.141-1.091,0.424-1.375
		c0.283-0.283,0.742-0.425,1.375-0.425h26.4c0.633,0,1.092,0.142,1.375,0.425c0.28,0.284,0.426,0.742,0.426,1.375v6.05
		c0,0.633-0.146,1.092-0.426,1.375c-0.283,0.284-0.742,0.425-1.375,0.425h-7.353v24.55c0,0.634-0.143,1.092-0.426,1.375
		C386.219-116.292,385.76-116.15,385.127-116.15z M380.828-120.65h0.5v-26.5h10.25v-0.5h-21v0.5h10.25V-120.65z"/>
	<path fill="#FFFFFF" d="M419.178-116.15h-8.102c-0.633,0-1.092-0.143-1.375-0.425c-0.283-0.283-0.424-0.741-0.424-1.375v-6.4
		l-7.65-10.25c-0.768-1.032-1.273-1.933-1.523-2.7c-0.25-0.767-0.375-1.917-0.375-3.45v-9.6c0-0.633,0.144-1.091,0.427-1.375
		c0.282-0.283,0.739-0.425,1.375-0.425h7.698c0.634,0,1.093,0.142,1.375,0.425c0.281,0.284,0.427,0.742,0.427,1.375v8.2
		c0,0.333,0.016,0.684,0.049,1.05c0.033,0.367,0.168,0.717,0.399,1.05l2.302,3.6c0.166,0.3,0.342,0.517,0.522,0.649
		c0.185,0.133,0.406,0.198,0.676,0.198h0.5c0.269,0,0.49-0.065,0.677-0.198c0.182-0.135,0.354-0.352,0.522-0.649l2.299-3.6
		c0.232-0.333,0.367-0.683,0.4-1.05c0.033-0.366,0.051-0.716,0.051-1.05v-8.2c0-0.633,0.144-1.091,0.424-1.375
		c0.283-0.283,0.742-0.425,1.375-0.425h7.451c0.633,0,1.09,0.142,1.375,0.425c0.281,0.284,0.424,0.742,0.424,1.375v9.6
		c0,1.534-0.133,2.684-0.397,3.45c-0.269,0.767-0.769,1.667-1.5,2.7l-7.603,10.3v6.351c0,0.634-0.143,1.092-0.424,1.375
		C420.268-116.292,419.811-116.15,419.178-116.15z M415.727-129.2c0.769,0,1.439-0.167,2.023-0.5
		c0.582-0.333,1.143-0.866,1.676-1.601l5-6.75c0.398-0.533,0.625-1.125,0.676-1.775c0.052-0.65,0.074-1.342,0.074-2.075v-5.749h-0.5
		v5.75c0,0.7-0.033,1.375-0.102,2.025c-0.069,0.65-0.269,1.192-0.603,1.625l-5,6.75c-0.5,0.633-1.008,1.092-1.522,1.375
		s-1.092,0.425-1.728,0.425h-1.35c-0.566,0-1.133-0.134-1.699-0.4c-0.565-0.266-1.065-0.731-1.5-1.399l-4.852-6.75
		c-0.332-0.5-0.533-1.058-0.603-1.675c-0.063-0.617-0.1-1.275-0.1-1.975v-5.751h-0.5v5.75c0,0.733,0.033,1.434,0.1,2.1
		c0.066,0.667,0.283,1.25,0.65,1.75l4.85,6.75c0.533,0.734,1.095,1.27,1.679,1.603c0.582,0.333,1.237,0.5,1.975,0.5h0.5v8.55h0.5
		v-8.55L415.727-129.2L415.727-129.2z"/>
	<path fill="#FFFFFF" d="M470.877-116.15h-12.201c-4.166,0-7.258-0.833-9.272-2.5c-2.019-1.666-3.023-4.232-3.023-7.7v-15.55
		c0-3.466,1.008-6.042,3.023-7.725c2.015-1.683,5.106-2.525,9.272-2.525h12.201c0.633,0,1.09,0.142,1.375,0.425
		c0.281,0.284,0.424,0.742,0.424,1.375v6.05c0,0.633-0.143,1.092-0.424,1.375c-0.285,0.284-0.742,0.425-1.375,0.425h-10.051
		c-1.033,0-1.801,0.208-2.301,0.625s-0.75,1.042-0.75,1.875v11.9c0,0.834,0.25,1.442,0.75,1.825c0.5,0.384,1.268,0.575,2.301,0.575
		h10.051c0.633,0,1.09,0.142,1.375,0.425c0.281,0.283,0.424,0.742,0.424,1.375v5.95c0,0.634-0.143,1.092-0.424,1.375
		C471.967-116.292,471.51-116.15,470.877-116.15z M468.127-121.15h-8.352c-3,0-5-0.45-6-1.35s-1.5-2.436-1.5-4.603v-14
		c0-2.2,0.518-3.758,1.551-4.675s3.016-1.375,5.949-1.375h8.352v-0.5h-8.352c-3.199,0-5.332,0.5-6.398,1.5s-1.602,2.684-1.602,5.05
		v14c0,2.302,0.522,3.95,1.573,4.95c1.052,1,3.191,1.5,6.427,1.5h8.352V-121.15z"/>
	<path fill="#FFFFFF" d="M487.875-116.15h-7.75c-0.633,0-1.092-0.143-1.375-0.425c-0.283-0.283-0.424-0.741-0.424-1.375v-32.4
		c0-0.633,0.141-1.091,0.424-1.375c0.283-0.283,0.742-0.425,1.375-0.425h7.75c0.633,0,1.092,0.142,1.375,0.425
		c0.283,0.284,0.426,0.742,0.426,1.375v10.85h8.353v-10.85c0-0.633,0.141-1.091,0.426-1.375c0.281-0.283,0.74-0.425,1.375-0.425
		h7.75c0.633,0,1.09,0.142,1.375,0.425c0.281,0.284,0.424,0.742,0.424,1.375v32.4c0,0.634-0.143,1.092-0.424,1.375
		c-0.287,0.282-0.744,0.425-1.377,0.425h-7.75c-0.635,0-1.094-0.143-1.375-0.425c-0.285-0.283-0.426-0.741-0.426-1.375v-11.101
		h-8.353v11.101c0,0.634-0.143,1.092-0.426,1.375C488.967-116.292,488.508-116.15,487.875-116.15z M483.725-120.65h0.5v-13.25
		h19.199v13.25h0.5v-27h-0.5v13.25h-19.199v-13.25h-0.5V-120.65z"/>
	<path fill="#FFFFFF" d="M546.924-125.6c0,1.534-0.225,2.925-0.674,4.175c-0.451,1.25-1.25,2.317-2.398,3.2
		c-1.149,0.884-2.727,1.575-4.727,2.075s-4.551,0.75-7.648,0.75c-3.102,0-5.649-0.25-7.649-0.75s-3.574-1.191-4.726-2.075
		c-1.149-0.883-1.948-1.95-2.399-3.2c-0.449-1.25-0.674-2.641-0.674-4.175v-24.75c0-0.633,0.141-1.091,0.424-1.375
		c0.283-0.283,0.742-0.425,1.375-0.425h7.85c0.635,0,1.094,0.142,1.375,0.425c0.283,0.284,0.428,0.742,0.428,1.375v22.8
		c0,0.668,0.25,1.228,0.75,1.676c0.5,0.449,1.615,0.677,3.351,0.677c1.768,0,2.899-0.228,3.399-0.677
		c0.5-0.448,0.75-1.008,0.75-1.676v-22.8c0-0.633,0.142-1.091,0.427-1.375c0.28-0.283,0.739-0.425,1.375-0.425h7.6
		c0.633,0,1.092,0.142,1.375,0.425c0.283,0.284,0.424,0.742,0.424,1.375v24.75H546.924z M521.525-147.65v20.85
		c0,2,0.688,3.625,2.073,4.875c1.384,1.25,4.023,1.875,7.927,1.875c3.896,0,6.549-0.625,7.948-1.875
		c1.398-1.25,2.101-2.875,2.101-4.875v-20.85h-0.5v20.85c0,1.867-0.666,3.375-2,4.525s-3.851,1.725-7.549,1.725
		c-3.701,0-6.209-0.574-7.525-1.725c-1.318-1.15-1.975-2.658-1.975-4.525v-20.85H521.525z"/>
	<path fill="#FFFFFF" d="M563.074-116.15h-7.699c-0.635,0-1.092-0.143-1.375-0.425c-0.283-0.283-0.426-0.741-0.426-1.375v-32.4
		c0-0.633,0.143-1.091,0.426-1.375c0.283-0.283,0.74-0.425,1.375-0.425h16.65c3.729,0,6.307,0.775,7.725,2.325
		c1.416,1.55,2.125,3.559,2.125,6.025v2.3c0,1.4-0.209,2.592-0.625,3.575c-0.418,0.983-1.143,1.692-2.176,2.125
		c1.801,0.2,3.258,0.936,4.375,2.2c1.117,1.269,1.676,2.95,1.676,5.05v10.601c0,0.634-0.143,1.092-0.426,1.375
		c-0.283,0.282-0.742,0.425-1.375,0.425h-7.75c-0.633,0-1.092-0.143-1.375-0.425c-0.283-0.283-0.424-0.741-0.424-1.375v-7.65
		c0-0.731-0.146-1.274-0.429-1.625c-0.28-0.35-0.772-0.524-1.475-0.524h-7v9.802c0,0.634-0.144,1.092-0.426,1.375
		C564.166-116.292,563.707-116.15,563.074-116.15z M559.475-120.65v-11.6h14.148c1.9,0,3.301,0.408,4.201,1.225
		c0.896,0.816,1.35,2.042,1.35,3.675v6.7h0.5v-6.7c0-1.731-0.5-3.058-1.5-3.975s-2.518-1.375-4.551-1.375h-0.549
		c1.198-0.366,2-1.042,2.396-2.025c0.4-0.981,0.604-2.241,0.604-3.775v-3.45c0-1.633-0.47-2.992-1.4-4.075
		c-0.934-1.083-2.367-1.625-4.301-1.625h-11.398v27H559.475L559.475-120.65z M570.375-147.15c1.768,0,3.074,0.483,3.924,1.45
		c0.854,0.967,1.275,2.217,1.275,3.75v3.5c0,1.833-0.353,3.25-1.049,4.25c-0.701,1-2.084,1.5-4.15,1.5h-10.898v-14.45H570.375z
		 M564.875-143.15v6.4h3.75c0.865,0,1.449-0.225,1.75-0.675c0.299-0.45,0.449-1.008,0.449-1.675v-1.7
		c0-0.667-0.15-1.225-0.449-1.675c-0.301-0.45-0.885-0.675-1.75-0.675H564.875z"/>
	<path fill="#FFFFFF" d="M614.426-116.15h-12.201c-4.166,0-7.258-0.833-9.272-2.5c-2.019-1.666-3.023-4.232-3.023-7.7v-15.55
		c0-3.466,1.009-6.042,3.023-7.725s5.104-2.525,9.272-2.525h12.199c0.635,0,1.092,0.142,1.375,0.425
		c0.283,0.284,0.426,0.742,0.426,1.375v6.05c0,0.633-0.143,1.092-0.426,1.375c-0.283,0.284-0.74,0.425-1.375,0.425h-10.051
		c-1.033,0-1.799,0.208-2.299,0.625s-0.75,1.042-0.75,1.875v11.9c0,0.834,0.25,1.442,0.75,1.825c0.5,0.384,1.266,0.575,2.299,0.575
		h10.051c0.635,0,1.092,0.142,1.375,0.425c0.283,0.283,0.426,0.742,0.426,1.375v5.95c0,0.634-0.143,1.092-0.426,1.375
		C615.516-116.292,615.057-116.15,614.426-116.15z M611.676-121.15h-8.352c-3,0-5-0.45-6-1.35s-1.5-2.436-1.5-4.603v-14
		c0-2.2,0.518-3.758,1.551-4.675s3.016-1.375,5.949-1.375h8.352v-0.5h-8.352c-3.199,0-5.332,0.5-6.398,1.5
		c-1.065,1-1.602,2.684-1.602,5.05v14c0,2.302,0.524,3.95,1.576,4.95c1.049,1,3.188,1.5,6.424,1.5h8.352V-121.15z"/>
	<path fill="#FFFFFF" d="M631.424-116.15h-7.75c-0.633,0-1.092-0.143-1.375-0.425c-0.283-0.283-0.424-0.741-0.424-1.375v-32.4
		c0-0.633,0.143-1.091,0.424-1.375c0.283-0.283,0.742-0.425,1.375-0.425h7.75c0.633,0,1.092,0.142,1.375,0.425
		c0.283,0.284,0.428,0.742,0.428,1.375v10.85h8.351v-10.85c0-0.633,0.141-1.091,0.426-1.375c0.281-0.283,0.74-0.425,1.375-0.425
		h7.75c0.633,0,1.09,0.142,1.375,0.425c0.281,0.284,0.424,0.742,0.424,1.375v32.4c0,0.634-0.143,1.092-0.424,1.375
		c-0.285,0.282-0.744,0.425-1.377,0.425h-7.75c-0.633,0-1.092-0.143-1.375-0.425c-0.283-0.283-0.424-0.741-0.424-1.375v-11.101
		h-8.353v11.101c0,0.634-0.143,1.092-0.426,1.375C632.516-116.292,632.057-116.15,631.424-116.15z M627.273-120.65h0.5v-13.25
		h19.198v13.25h0.5v-27h-0.5v13.25h-19.198v-13.25h-0.5V-120.65z"/>
</g>
<rect x="646" y="67" fill="#010733" width="13" height="1"/>
<g enable-background="new    ">
	<path fill="#8DD809" d="M177.483,76.949l-0.144,4.284c0,1.477,0.123,2.718,0.369,3.727c0.246,1.008,0.705,1.704,1.377,2.088
		c-0.828,0.516-1.668,0.773-2.52,0.773c-1.5,0-2.424-1.212-2.772-3.636h-3.672c-0.228,0.78-0.342,1.377-0.342,1.791
		s0.048,0.747,0.144,0.999c-0.888,0.563-1.68,0.846-2.376,0.846c-1.068,0-1.602-0.647-1.602-1.943c0-0.648,0.201-1.464,0.603-2.448
		c0.402-0.984,0.936-2.112,1.602-3.384c0.666-1.272,1.089-2.112,1.269-2.521c-0.132-0.647-0.282-1.284-0.45-1.908
		c0.624-0.432,1.227-0.759,1.809-0.98c0.582-0.222,1.212-0.333,1.89-0.333c0.678,0,1.148,0.15,1.413,0.45
		c0.684-0.3,1.248-0.45,1.692-0.45c0.443,0,0.774,0.072,0.99,0.216s0.372,0.354,0.468,0.63
		C177.398,75.63,177.483,76.229,177.483,76.949z M173.865,77.363h-0.576c-1.08,2.088-1.884,3.732-2.412,4.933h2.79
		C173.667,80.987,173.732,79.344,173.865,77.363z"/>
	<path fill="#8DD809" d="M193.538,90.936c-0.744,0-1.263-0.184-1.557-0.549c-0.294-0.366-0.441-0.895-0.441-1.584
		c0-0.69,0.146-2.079,0.441-4.167c0.294-2.088,0.579-3.87,0.855-5.347l-1.008-1.439c0.744-0.432,1.386-0.759,1.926-0.981
		c0.54-0.222,1.074-0.333,1.602-0.333c0.864,0,1.296,0.57,1.296,1.71c0,0.156-0.024,0.475-0.072,0.954l0.18,0.09
		c0.348-0.863,0.852-1.538,1.512-2.024c0.66-0.486,1.437-0.729,2.331-0.729c0.894,0,1.604,0.405,2.133,1.216
		c0.528,0.81,0.792,1.814,0.792,3.015c0,1.608-0.564,3.072-1.692,4.392c-0.552,0.648-1.29,1.174-2.214,1.575
		c-0.924,0.402-1.956,0.604-3.096,0.604c-0.348,0-0.804-0.03-1.368-0.091c-0.036,0.42-0.054,0.811-0.054,1.17
		c0,0.769,0.186,1.314,0.558,1.639C194.99,90.642,194.282,90.936,193.538,90.936z M195.896,83.483l-0.414,2.088
		c1.452-0.036,2.613-0.513,3.483-1.431c0.87-0.918,1.305-1.923,1.305-3.015c0-0.564-0.111-1.018-0.333-1.359
		c-0.222-0.342-0.543-0.513-0.963-0.513C197.486,79.254,196.46,80.664,195.896,83.483z"/>
	<path fill="#8DD809" d="M211.34,87.804c-1.056,0-1.794-0.259-2.214-0.774s-0.63-1.167-0.63-1.953c0-0.785,0.132-1.862,0.396-3.23
		c0.264-1.368,0.396-2.358,0.396-2.97c0-0.612-0.126-1.092-0.378-1.44c1.116-0.588,2.058-0.882,2.826-0.882
		c0.492,0,0.849,0.099,1.071,0.297s0.333,0.52,0.333,0.963c0,0.444-0.183,1.533-0.549,3.267c-0.366,1.734-0.549,2.806-0.549,3.214
		c0,0.407,0.114,0.729,0.342,0.963c0.228,0.233,0.528,0.351,0.9,0.351c0.372,0,0.768-0.146,1.188-0.44
		c0.42-0.294,0.762-0.712,1.026-1.252c0.168-0.972,0.498-2.508,0.99-4.607l-1.08-1.44c1.212-0.875,2.364-1.313,3.456-1.313
		c0.54,0,0.927,0.099,1.161,0.297c0.234,0.198,0.351,0.498,0.351,0.9c0,0.401-0.219,1.551-0.657,3.446
		c-0.438,1.896-0.657,3.243-0.657,4.041c0,0.799,0.186,1.359,0.558,1.684c-0.672,0.588-1.377,0.882-2.115,0.882
		c-0.738,0-1.269-0.162-1.593-0.486c-0.324-0.324-0.486-0.75-0.486-1.278l-0.18-0.09c-0.396,0.576-0.945,1.029-1.647,1.359
		S212.144,87.804,211.34,87.804z"/>
	<path fill="#8DD809" d="M225.056,85.571c0-0.479,0.123-1.41,0.369-2.79s0.501-2.64,0.765-3.779l-0.936-1.44
		c1.5-0.672,2.553-1.008,3.159-1.008c0.605,0,0.909,0.384,0.909,1.151c0,0.421-0.198,1.297-0.594,2.629l0.18,0.09
		c0.864-2.58,1.938-3.87,3.222-3.87c0.588,0,1.038,0.18,1.35,0.54c0.312,0.359,0.468,0.762,0.468,1.206
		c0,0.66-0.246,1.224-0.738,1.691c-0.492,0.469-1.23,0.702-2.214,0.702c-1.488,0-2.232,1.53-2.232,4.59
		c0,0.744,0.126,1.29,0.378,1.639c-0.744,0.588-1.428,0.882-2.052,0.882C225.734,87.804,225.056,87.06,225.056,85.571z"/>
	<path fill="#8DD809" d="M239.563,90.936c-0.744,0-1.263-0.184-1.557-0.549c-0.294-0.366-0.441-0.895-0.441-1.584
		c0-0.69,0.146-2.079,0.441-4.167c0.294-2.088,0.579-3.87,0.855-5.347l-1.008-1.439c0.744-0.432,1.386-0.759,1.926-0.981
		c0.54-0.222,1.074-0.333,1.602-0.333c0.864,0,1.296,0.57,1.296,1.71c0,0.156-0.024,0.475-0.072,0.954l0.18,0.09
		c0.348-0.863,0.852-1.538,1.512-2.024c0.66-0.486,1.437-0.729,2.331-0.729c0.894,0,1.604,0.405,2.133,1.216
		c0.528,0.81,0.792,1.814,0.792,3.015c0,1.608-0.564,3.072-1.692,4.392c-0.552,0.648-1.29,1.174-2.214,1.575
		c-0.924,0.402-1.956,0.604-3.096,0.604c-0.348,0-0.804-0.03-1.368-0.091c-0.036,0.42-0.054,0.811-0.054,1.17
		c0,0.769,0.186,1.314,0.558,1.639C241.016,90.642,240.308,90.936,239.563,90.936z M241.922,83.483l-0.414,2.088
		c1.452-0.036,2.613-0.513,3.483-1.431c0.87-0.918,1.305-1.923,1.305-3.015c0-0.564-0.111-1.018-0.333-1.359
		c-0.222-0.342-0.543-0.513-0.963-0.513C243.512,79.254,242.485,80.664,241.922,83.483z"/>
	<path fill="#8DD809" d="M263.036,77.922c0.672,0,1.251,0.27,1.737,0.81c0.486,0.54,0.729,1.323,0.729,2.349
		c0,1.026-0.18,1.975-0.54,2.845c-0.36,0.87-0.834,1.581-1.422,2.133s-1.254,0.98-1.998,1.287c-0.744,0.306-1.506,0.459-2.286,0.459
		c-1.572,0-2.814-0.433-3.726-1.296c-0.912-0.864-1.368-2.01-1.368-3.438c0-1.932,0.621-3.501,1.863-4.707
		c1.242-1.206,2.823-1.809,4.743-1.809c0.432,0,0.864,0.048,1.296,0.144c0.132,0.396,0.204,0.847,0.216,1.351
		C262.532,77.964,262.784,77.922,263.036,77.922z M260.822,80.424c0-0.336,0.081-0.714,0.243-1.135
		c0.162-0.42,0.423-0.756,0.783-1.008c-1.584,0.336-2.676,0.979-3.276,1.926c-0.516,0.816-0.774,1.656-0.774,2.521
		s0.177,1.557,0.531,2.079c0.354,0.521,0.807,0.783,1.359,0.783c1.224,0,2.088-0.798,2.592-2.395
		C261.308,82.596,260.822,81.672,260.822,80.424z"/>
	<path fill="#8DD809" d="M275.941,78.947c-0.444,0.133-0.798,0.321-1.062,0.567c-0.264,0.246-0.498,0.597-0.702,1.053
		c2.028,0.3,3.456,0.732,4.284,1.296c0.828,0.564,1.242,1.368,1.242,2.412c0,0.66-0.187,1.233-0.558,1.719
		c-0.372,0.486-0.84,0.855-1.404,1.107c-1.104,0.468-2.19,0.702-3.258,0.702c-3.036,0-4.554-0.654-4.554-1.962
		c0-0.66,0.293-1.32,0.882-1.98c0.3,0.42,0.753,0.78,1.359,1.08s1.197,0.45,1.773,0.45c0.996,0,1.596-0.438,1.8-1.314
		c-1.824-0.216-3.144-0.623-3.96-1.224c-0.816-0.6-1.224-1.446-1.224-2.538c0-0.864,0.285-1.59,0.855-2.178
		c0.57-0.588,1.278-0.999,2.124-1.233c0.846-0.233,1.8-0.351,2.862-0.351s1.938,0.201,2.628,0.603
		c0.69,0.402,1.035,0.892,1.035,1.467c0,0.576-0.201,1.021-0.603,1.332c-0.402,0.313-0.84,0.469-1.314,0.469
		s-0.906-0.126-1.296-0.378C276.46,79.794,276.158,79.428,275.941,78.947z"/>
	<path fill="#8DD809" d="M289.729,87.804c-1.644,0-2.913-0.427-3.807-1.278s-1.341-2.004-1.341-3.456
		c0-1.932,0.663-3.501,1.989-4.707c1.326-1.206,2.991-1.809,4.995-1.809c1.116,0,1.962,0.249,2.538,0.747s0.864,1.155,0.864,1.971
		c0,1.116-0.543,2.043-1.629,2.781c-1.086,0.737-2.763,1.113-5.031,1.125c0.036,0.768,0.209,1.371,0.522,1.809
		c0.312,0.438,0.702,0.657,1.17,0.657c0.468,0,0.873-0.156,1.215-0.468c0.342-0.313,0.513-0.822,0.513-1.53
		c1.752,0,2.628,0.414,2.628,1.242c0,0.708-0.432,1.371-1.296,1.989C292.195,87.494,291.085,87.804,289.729,87.804z M291.259,78.659
		c-0.612,0-1.173,0.307-1.683,0.918c-0.51,0.612-0.879,1.332-1.107,2.16c1.2-0.096,2.103-0.369,2.709-0.818
		c0.605-0.45,0.909-0.928,0.909-1.432c0-0.239-0.075-0.438-0.225-0.594S291.512,78.659,291.259,78.659z"/>
	<path fill="#8DD809" d="M308.053,84.42c0-0.685,0.162-1.891,0.486-3.618c0.324-1.729,0.522-2.82,0.594-3.276l-0.954-1.926
		c1.524-0.864,2.82-1.296,3.888-1.296c0.528,0,0.924,0.18,1.188,0.54c0.996-0.348,1.914-0.522,2.754-0.522
		c1.56,0,2.772,0.507,3.636,1.521c0.864,1.014,1.296,2.276,1.296,3.789c0,1.992-0.732,3.822-2.196,5.489
		c-0.708,0.805-1.641,1.452-2.799,1.944c-1.158,0.492-2.397,0.738-3.717,0.738s-2.346-0.291-3.078-0.873
		C308.419,86.349,308.053,85.512,308.053,84.42z M311.869,85.104c0.252,0.048,0.534,0.072,0.846,0.072
		c1.308,0,2.328-0.471,3.06-1.413s1.098-2.104,1.098-3.483c0-1.116-0.252-2.004-0.756-2.664c-0.504-0.659-1.23-0.989-2.178-0.989
		c-0.144,0-0.384,0.023-0.72,0.071c-0.084,0.612-0.303,1.978-0.657,4.096C312.208,82.91,311.977,84.348,311.869,85.104z"/>
	<path fill="#8DD809" d="M324.919,85.571c0-0.479,0.123-1.41,0.369-2.79s0.501-2.64,0.765-3.779l-0.936-1.44
		c1.5-0.672,2.553-1.008,3.159-1.008c0.605,0,0.909,0.384,0.909,1.151c0,0.421-0.198,1.297-0.594,2.629l0.18,0.09
		c0.864-2.58,1.938-3.87,3.222-3.87c0.588,0,1.038,0.18,1.35,0.54c0.312,0.359,0.468,0.762,0.468,1.206
		c0,0.66-0.246,1.224-0.738,1.691c-0.492,0.469-1.23,0.702-2.214,0.702c-1.488,0-2.232,1.53-2.232,4.59
		c0,0.744,0.126,1.29,0.378,1.639c-0.744,0.588-1.428,0.882-2.052,0.882C325.597,87.804,324.919,87.06,324.919,85.571z"/>
	<path fill="#8DD809" d="M339.742,87.804c-0.75,0-1.293-0.187-1.629-0.559c-0.336-0.371-0.504-0.938-0.504-1.7
		c0-0.763,0.383-2.806,1.151-6.13l-1.008-1.512c1.5-0.899,2.683-1.35,3.546-1.35c0.492,0,0.84,0.105,1.044,0.314
		c0.204,0.21,0.306,0.55,0.306,1.018c0,0.18-0.222,1.236-0.666,3.168c-0.443,1.932-0.666,3.312-0.666,4.14s0.187,1.404,0.559,1.729
		C341.203,87.51,340.492,87.804,339.742,87.804z M343.243,73.7c0,0.463-0.24,0.858-0.72,1.188c-0.48,0.33-1.026,0.495-1.639,0.495
		c-0.611,0-1.096-0.12-1.449-0.36s-0.531-0.563-0.531-0.972c0-0.552,0.259-0.984,0.775-1.296c0.516-0.313,1.061-0.469,1.637-0.469
		s1.041,0.12,1.396,0.36S343.243,73.238,343.243,73.7z"/>
	<path fill="#8DD809" d="M348.121,85.373l0.072-4.949c0-1.393-0.324-2.424-0.973-3.097c0.623-0.516,1.308-0.773,2.052-0.773
		c0.972,0,1.632,0.432,1.979,1.296c0.301,0.744,0.451,1.869,0.451,3.375s-0.031,2.967-0.09,4.383h0.611
		c1.824-3.828,2.736-6.318,2.736-7.47c0-0.276-0.055-0.546-0.162-0.811c0.888-0.516,1.691-0.773,2.412-0.773
		c0.936,0,1.404,0.564,1.404,1.691c0,0.517-0.133,1.161-0.396,1.936c-0.264,0.773-0.67,1.771-1.215,2.988
		c-0.547,1.218-0.832,1.851-0.855,1.898l0.234,1.044c-0.504,0.456-1.225,0.853-2.16,1.188s-1.926,0.504-2.971,0.504
		c-1.043,0-1.826-0.189-2.348-0.567C348.382,86.858,348.121,86.237,348.121,85.373z"/>
	<path fill="#8DD809" d="M368.01,87.804c-1.644,0-2.912-0.427-3.807-1.278s-1.341-2.004-1.341-3.456
		c0-1.932,0.663-3.501,1.989-4.707s2.99-1.809,4.994-1.809c1.117,0,1.963,0.249,2.539,0.747s0.863,1.155,0.863,1.971
		c0,1.116-0.543,2.043-1.629,2.781c-1.086,0.737-2.763,1.113-5.031,1.125c0.036,0.768,0.21,1.371,0.522,1.809
		c0.312,0.438,0.702,0.657,1.17,0.657s0.873-0.156,1.215-0.468c0.343-0.313,0.513-0.822,0.513-1.53c1.752,0,2.629,0.414,2.629,1.242
		c0,0.708-0.433,1.371-1.297,1.989C370.477,87.494,369.366,87.804,368.01,87.804z M369.54,78.659c-0.612,0-1.173,0.307-1.683,0.918
		c-0.51,0.612-0.879,1.332-1.107,2.16c1.2-0.096,2.104-0.369,2.709-0.818c0.605-0.45,0.909-0.928,0.909-1.432
		c0-0.239-0.075-0.438-0.226-0.594C369.993,78.737,369.793,78.659,369.54,78.659z"/>
	<path fill="#8DD809" d="M379.926,87.804c-0.707,0-1.23-0.187-1.565-0.559c-0.337-0.371-0.504-0.863-0.504-1.476
		s0.122-1.608,0.368-2.988s0.502-2.64,0.766-3.779l-0.936-1.44c1.188-0.672,2.285-1.008,3.293-1.008
		c1.009,0,1.513,0.456,1.513,1.368c0,0.6-0.138,1.212-0.414,1.836l0.18,0.09c1.284-2.196,2.916-3.294,4.896-3.294
		c1.453,0,2.179,0.726,2.179,2.178c0,0.624-0.177,1.681-0.53,3.168c-0.355,1.488-0.531,2.61-0.531,3.366s0.125,1.308,0.377,1.656
		c-0.636,0.588-1.308,0.882-2.016,0.882c-1.38,0-2.07-0.744-2.07-2.232c0-0.552,0.181-1.487,0.541-2.808
		c0.359-1.32,0.539-2.178,0.539-2.574c0-0.54-0.203-0.81-0.611-0.81c-0.336,0-0.721,0.146-1.152,0.44s-0.85,0.69-1.251,1.188
		s-0.741,1.128-1.017,1.89c-0.276,0.763-0.414,1.536-0.414,2.322s0.126,1.353,0.378,1.701
		C381.307,87.51,380.635,87.804,379.926,87.804z"/>
	<path fill="#8DD809" d="M402.426,81.827c0-0.84,0.18-1.694,0.54-2.564s0.87-1.677,1.53-2.421s1.521-1.354,2.582-1.827
		c1.063-0.474,2.16-0.711,3.295-0.711c1.134,0,2.021,0.21,2.664,0.63c0.642,0.42,0.963,1.002,0.963,1.746s-0.243,1.323-0.729,1.737
		c-0.485,0.413-1.041,0.62-1.665,0.62s-1.186-0.135-1.683-0.404c-0.498-0.271-0.897-0.657-1.197-1.161
		c-0.647,0.313-1.206,0.924-1.674,1.836s-0.702,1.827-0.702,2.745s0.15,1.644,0.45,2.178s0.726,0.801,1.278,0.801
		c0.551,0,1.041-0.281,1.467-0.846c0.426-0.563,0.639-1.242,0.639-2.034c1.212,0,2.079,0.097,2.602,0.288
		c0.521,0.192,0.783,0.606,0.783,1.242c0,0.996-0.541,1.932-1.621,2.808s-2.436,1.314-4.067,1.314s-2.949-0.504-3.951-1.512
		C402.927,85.283,402.426,83.796,402.426,81.827z"/>
	<path fill="#8DD809" d="M428.094,76.554c1.452,0,2.178,0.726,2.178,2.178c0,0.624-0.177,1.681-0.53,3.168
		c-0.354,1.488-0.531,2.61-0.531,3.366s0.126,1.308,0.378,1.656c-0.637,0.588-1.309,0.882-2.016,0.882
		c-1.381,0-2.07-0.744-2.07-2.232c0-0.552,0.18-1.487,0.54-2.808s0.54-2.178,0.54-2.574c0-0.54-0.204-0.81-0.612-0.81
		c-0.336,0-0.72,0.146-1.151,0.44c-0.433,0.294-0.85,0.69-1.252,1.188s-0.74,1.128-1.017,1.89c-0.276,0.763-0.414,1.536-0.414,2.322
		s0.126,1.353,0.378,1.701c-0.636,0.588-1.308,0.882-2.016,0.882c-1.381,0-2.07-0.744-2.07-2.232c0-0.888,0.24-2.688,0.721-5.399
		c0.407-2.388,0.641-3.727,0.701-4.015l-1.008-1.439c1.5-0.876,2.682-1.314,3.547-1.314c0.491,0,0.839,0.1,1.043,0.297
		c0.204,0.198,0.307,0.525,0.307,0.981c0,0.864-0.084,1.806-0.252,2.826c-0.168,1.02-0.324,1.77-0.469,2.25l0.18,0.09
		C424.482,77.651,426.113,76.554,428.094,76.554z"/>
	<path fill="#8DD809" d="M438.084,87.804c-1.057,0-1.795-0.259-2.215-0.774s-0.629-1.167-0.629-1.953
		c0-0.785,0.131-1.862,0.396-3.23c0.264-1.368,0.396-2.358,0.396-2.97c0-0.612-0.125-1.092-0.377-1.44
		c1.115-0.588,2.058-0.882,2.826-0.882c0.491,0,0.848,0.099,1.07,0.297s0.333,0.52,0.333,0.963c0,0.444-0.183,1.533-0.549,3.267
		c-0.366,1.734-0.55,2.806-0.55,3.214c0,0.407,0.115,0.729,0.343,0.963c0.228,0.233,0.528,0.351,0.899,0.351
		c0.372,0,0.768-0.146,1.188-0.44c0.42-0.294,0.762-0.712,1.026-1.252c0.168-0.972,0.498-2.508,0.99-4.607l-1.08-1.44
		c1.211-0.875,2.363-1.313,3.455-1.313c0.541,0,0.928,0.099,1.162,0.297c0.232,0.198,0.35,0.498,0.35,0.9
		c0,0.401-0.219,1.551-0.656,3.446c-0.438,1.896-0.657,3.243-0.657,4.041c0,0.799,0.187,1.359,0.558,1.684
		c-0.672,0.588-1.377,0.882-2.114,0.882c-0.738,0-1.269-0.162-1.593-0.486s-0.486-0.75-0.486-1.278l-0.18-0.09
		c-0.396,0.576-0.945,1.029-1.647,1.359S438.888,87.804,438.084,87.804z"/>
	<path fill="#8DD809" d="M451.8,85.571c0-0.479,0.123-1.41,0.369-2.79c0.245-1.38,0.501-2.64,0.765-3.779l-0.936-1.44
		c1.499-0.672,2.553-1.008,3.158-1.008c0.606,0,0.909,0.384,0.909,1.151c0,0.421-0.198,1.297-0.594,2.629l0.18,0.09
		c0.864-2.58,1.938-3.87,3.223-3.87c0.587,0,1.037,0.18,1.35,0.54c0.312,0.359,0.468,0.762,0.468,1.206
		c0,0.66-0.246,1.224-0.738,1.691c-0.492,0.469-1.229,0.702-2.214,0.702c-1.487,0-2.231,1.53-2.231,4.59
		c0,0.744,0.126,1.29,0.378,1.639c-0.744,0.588-1.429,0.882-2.052,0.882C452.478,87.804,451.8,87.06,451.8,85.571z"/>
	<path fill="#8DD809" d="M464.129,83.069c0-1.92,0.66-3.485,1.98-4.698c1.32-1.212,2.981-1.817,4.986-1.817
		c1.031,0,1.848,0.195,2.447,0.585c0.601,0.39,0.9,0.879,0.9,1.467s-0.201,1.038-0.603,1.35c-0.402,0.313-0.841,0.469-1.314,0.469
		c-0.475,0-0.906-0.126-1.296-0.378c-0.391-0.252-0.693-0.618-0.909-1.099c-0.756,0.313-1.354,0.864-1.791,1.656
		c-0.438,0.792-0.657,1.584-0.657,2.376s0.156,1.435,0.469,1.926c0.312,0.492,0.72,0.738,1.224,0.738s0.915-0.168,1.232-0.504
		c0.318-0.336,0.478-0.834,0.478-1.494c1.752,0,2.628,0.414,2.628,1.242c0,0.708-0.444,1.371-1.332,1.989
		c-0.888,0.617-2.059,0.927-3.51,0.927c-1.452,0-2.637-0.436-3.556-1.306C464.588,85.629,464.129,84.485,464.129,83.069z"/>
	<path fill="#8DD809" d="M488.717,76.554c1.452,0,2.178,0.726,2.178,2.178c0,0.624-0.177,1.681-0.53,3.168
		c-0.354,1.488-0.531,2.61-0.531,3.366s0.126,1.308,0.378,1.656c-0.636,0.588-1.308,0.882-2.016,0.882
		c-1.381,0-2.07-0.744-2.07-2.232c0-0.552,0.18-1.487,0.54-2.808s0.54-2.178,0.54-2.574c0-0.54-0.204-0.81-0.612-0.81
		c-0.336,0-0.72,0.146-1.151,0.44c-0.433,0.294-0.85,0.69-1.251,1.188c-0.402,0.498-0.741,1.128-1.018,1.89
		c-0.276,0.763-0.414,1.536-0.414,2.322s0.126,1.353,0.378,1.701c-0.636,0.588-1.308,0.882-2.016,0.882
		c-1.38,0-2.07-0.744-2.07-2.232c0-0.888,0.24-2.688,0.721-5.399c0.407-2.388,0.642-3.727,0.701-4.015l-1.008-1.439
		c1.5-0.876,2.683-1.314,3.546-1.314c0.492,0,0.84,0.1,1.044,0.297c0.204,0.198,0.307,0.525,0.307,0.981
		c0,0.864-0.084,1.806-0.252,2.826c-0.169,1.02-0.324,1.77-0.469,2.25l0.181,0.09C485.104,77.651,486.737,76.554,488.717,76.554z"/>
</g>
<g>
	<path fill="#FFFFFF" d="M110.333,31.582c3.136,0,5.151,1.568,5.983,1.568c0.704,0,0.896-0.224,1.44-0.224
		c1.344,0,3.072,2.016,3.072,5.568c0,1.824-1.088,3.36-2.976,3.36c-3.296,0-2.464-5.664-8.16-5.664
		c-2.464,0-3.488,2.304-3.488,4.063c0,4.736,2.528,8.768,7.008,8.768c4.063,0,4.671-2.208,5.664-2.208
		c0.928,0,1.376,1.088,1.376,1.888c0,1.408-1.472,4.354-3.072,4.354c-1.088,0-3.328,1.854-7.104,1.854
		c-6.72,0-12.223-5.312-12.223-11.744C97.854,36.605,104.029,31.582,110.333,31.582z"/>
	<path fill="#FFFFFF" d="M128.446,43.165c0-6.783,5.408-11.583,12.383-11.583c8.832,0,12.223,7.775,12.223,11.903
		c0,6.879-6.08,11.423-12.607,11.423C133.693,54.908,128.446,49.98,128.446,43.165z M139.357,36.349
		c-1.792,0-2.688,1.856-2.688,3.424c0,2.72,1.92,10.367,5.376,10.367c1.952,0,2.784-1.696,2.784-3.424
		C144.829,43.805,143.101,36.349,139.357,36.349z"/>
	<path fill="#FFFFFF" d="M169.149,45.469c-0.192-0.416-0.544-1.376-1.12-1.376c-0.992,0-0.672,4.224-0.672,5.28
		c0,3.423,2.048,1.824,2.048,3.551c0,1.824-3.424,1.889-4.672,1.889c-1.12,0-4.032-0.097-4.032-1.76c0-1.824,1.92-0.32,2.176-2.944
		c0.256-2.688,0.544-5.664,0.544-10.303c0-1.92-0.128-2.912-0.48-3.648c-0.32-0.672-2.144-0.896-2.144-2.208
		c0-1.824,2.976-2.271,5.536-2.271c3.744,0,3.68,0.64,4.64,2.271c1.12,1.888,3.104,7.136,4.512,7.456
		c0.992,0.224,2.304-3.647,3.456-5.759c1.632-3.008,1.664-3.968,5.888-3.968c1.408,0,4.608,0.096,4.608,2.112
		c0,1.28-1.44,1.536-1.76,2.624c-0.256,0.896-0.48,4.672-0.48,6.112c0,0.48,0.192,4,0.32,6.976c0.096,2.335,2.016,1.824,2.016,3.263
		c0,2.146-4.384,2.049-5.792,2.049c-1.312,0-5.696,0.127-5.696-1.92c0-1.121,1.44-1.313,1.664-2.336
		c0.128-0.543,0.768-6.048-0.352-6.048c-0.992,0-2.016,2.816-2.784,4.448c-0.704,1.472-1.856,5.12-2.88,4.992
		c-0.512-0.064-0.768,0-2.688-4.32L169.149,45.469z"/>
	<path fill="#FFFFFF" d="M205.277,45.469c-0.192-0.416-0.544-1.376-1.12-1.376c-0.992,0-0.672,4.224-0.672,5.28
		c0,3.423,2.048,1.824,2.048,3.551c0,1.824-3.424,1.889-4.672,1.889c-1.12,0-4.032-0.097-4.032-1.76c0-1.824,1.92-0.32,2.176-2.944
		c0.256-2.688,0.544-5.664,0.544-10.303c0-1.92-0.128-2.912-0.48-3.648c-0.32-0.672-2.144-0.896-2.144-2.208
		c0-1.824,2.976-2.271,5.536-2.271c3.744,0,3.68,0.64,4.64,2.271c1.12,1.888,3.104,7.136,4.512,7.456
		c0.992,0.224,2.304-3.647,3.456-5.759c1.632-3.008,1.664-3.968,5.888-3.968c1.408,0,4.608,0.096,4.608,2.112
		c0,1.28-1.44,1.536-1.76,2.624c-0.256,0.896-0.48,4.672-0.48,6.112c0,0.48,0.192,4,0.32,6.976c0.096,2.335,2.016,1.824,2.016,3.263
		c0,2.146-4.384,2.049-5.792,2.049c-1.312,0-5.696,0.127-5.696-1.92c0-1.121,1.44-1.313,1.664-2.336
		c0.128-0.543,0.768-6.048-0.352-6.048c-0.992,0-2.016,2.816-2.784,4.448c-0.704,1.472-1.856,5.12-2.88,4.992
		c-0.512-0.064-0.768,0-2.688-4.32L205.277,45.469z"/>
	<path fill="#FFFFFF" d="M252.635,37.565c0-3.424-2.752-2.112-2.752-3.968c0-1.984,3.712-1.92,5.024-1.92
		c1.216,0,4.735,0,4.735,1.856c0,1.792-2.399,0.704-2.399,3.616v8.639c0,1.44,0.032,9.12-11.04,9.12
		c-12.607,0-11.199-9.728-11.199-10.111v-7.392c0.128-2.016-2.048-2.016-2.048-3.488c0-0.448-0.352-2.24,6.24-2.24
		c5.216,0,6.271,0.96,6.271,2.208c0,2.304-2.336,0.16-2.496,4.064v5.888c0,3.808,1.44,6.239,4.832,6.239
		c5.056,0,4.832-4.191,4.832-4.543V37.565L252.635,37.565z"/>
	<path fill="#FFFFFF" d="M284.06,39.741c0.384,0.32,1.408,1.248,1.984,1.248c0.8,0,0.832-1.313,0.832-1.855
		c0-0.8-0.032-2.176-0.288-2.912c-0.448-1.344-2.144-0.864-2.144-2.592c0-2.048,3.264-1.952,4.608-1.952
		c1.408,0,4.896-0.16,4.896,2.048c0,1.824-1.696,1.152-2.24,2.624c-0.416,1.152-0.416,3.136-0.416,4.352v8.287
		c0,1.44,0.192,5.823-1.952,5.823c-0.64,0-1.184-0.385-1.664-0.801l-9.887-8.863c-0.448-0.416-1.28-1.184-1.952-1.184
		c-0.992,0-1.024,2.08-1.024,2.751c0,0.896,0.032,2.08,0.224,2.912c0.48,2.047,2.176,1.28,2.176,2.849
		c0,2.144-3.296,2.336-4.8,2.336c-1.472,0-4.768-0.192-4.768-2.272c0-1.696,1.856-1.024,2.176-3.072
		c0.224-1.376,0.288-3.392,0.288-4.832c0-2.304,0-4.64-0.352-6.943c-0.512-3.2-2.816-1.952-2.816-3.872
		c0-2.271,4.32-2.144,5.76-2.144c1.984,0,2.336,0.128,3.776,1.408L284.06,39.741z"/>
	<path fill="#FFFFFF" d="M303.932,41.661c0-4.064-0.32-4.992-0.672-5.44c-0.736-0.928-1.984-1.024-1.984-2.24
		c0-2.304,6.528-2.304,7.167-2.304c1.92,0,5.855,0.064,5.855,2.24c0,1.152-1.216,1.088-1.952,1.92
		c-0.607,0.704-0.64,3.583-0.64,5.824v3.167c0,5.695,0.384,5.568,1.023,5.952c0.801,0.479,1.568,0.64,1.568,1.632
		c0,0.96-0.288,2.4-7.295,2.4c-1.344,0-5.376-0.033-5.376-2.08c0-1.024,1.088-1.185,1.6-1.793c0.384-0.447,0.704-1.631,0.704-6.111
		V41.661L303.932,41.661z"/>
	<path fill="#FFFFFF" d="M337.083,32.03c1.376,0,2.016-0.128,2.495-0.224c0.448-0.128,0.705-0.224,1.313-0.224
		c1.248,0,3.841,2.464,3.841,5.919c0,1.6-0.832,2.656-2.465,2.656c-2.783,0-2.752-3.776-4.384-3.776c-1.248,0-1.12,1.728-1.12,1.984
		v9.823c0,3.808,2.944,1.984,2.944,4.224c0,0.992-0.608,2.4-6.592,2.4c-1.632,0-7.616,0.063-7.616-2.4
		c0-1.695,1.984-1.023,2.624-2.24c0.32-0.672,0.448-2.592,0.479-3.392l0.257-7.071c0.128-3.36-0.544-3.328-0.992-3.328
		c-1.44,0-2.145,3.776-4.736,3.776c-1.248,0-1.983-1.152-1.983-2.304c0-2.72,2.304-6.271,4.128-6.271
		c0.224,0,0.575,0.096,1.184,0.224c0.608,0.096,1.472,0.224,2.752,0.224H337.083z"/>
	<path fill="#FFFFFF" d="M369.499,40.477c-1.407,1.76-1.504,2.72-1.504,4.959c0,2.944,0.16,4.224,0.448,4.832
		c0.446,0.927,2.144,0.736,2.144,2.24c0,2.305-5.056,2.305-6.624,2.305c-6.271,0-7.104-1.439-7.104-2.305
		c0-1.728,1.823-1.088,2.399-2.399c0.32-0.736,0.513-2.208,0.513-5.312c0-1.824-0.287-2.432-1.408-3.872l-3.615-4.191
		c-1.568-1.824-3.648-1.312-3.648-2.88c0-0.736-0.223-2.176,7.232-2.176c6.655,0,6.592,1.248,6.592,1.952
		c0,0.832-0.896,1.152-0.896,1.824c0,0.704,1.278,2.72,2.08,2.72c0.832,0,2.176-1.696,2.176-2.432c0-0.896-0.928-0.96-0.928-2.176
		c0-1.888,3.711-1.888,4.928-1.888c4,0,5.055,0.48,5.055,1.888c0,2.048-2.303,0.864-3.903,2.592L369.499,40.477z"/>
	<path fill="#FFFFFF" d="M413.466,31.582c3.136,0,5.151,1.568,5.983,1.568c0.704,0,0.896-0.224,1.439-0.224
		c1.345,0,3.071,2.016,3.071,5.568c0,1.824-1.088,3.36-2.976,3.36c-3.296,0-2.465-5.664-8.159-5.664
		c-2.464,0-3.488,2.304-3.488,4.063c0,4.736,2.528,8.768,7.008,8.768c4.063,0,4.672-2.208,5.663-2.208
		c0.929,0,1.376,1.088,1.376,1.888c0,1.408-1.472,4.354-3.071,4.354c-1.088,0-3.327,1.854-7.104,1.854
		c-6.72,0-12.224-5.312-12.224-11.744C400.986,36.605,407.162,31.582,413.466,31.582z"/>
	<path fill="#FFFFFF" d="M455.002,49.18c0,0.96,0.128,1.44,0.992,1.919c0.64,0.353,1.088,0.545,1.088,1.344
		c0,0.769-0.064,2.369-6.368,2.369c-1.407,0-5.503-0.033-5.503-2.177c-0.129-2.464,2.239,0.257,2.239-6.24
		c0-1.728-0.384-1.664-1.983-1.664c-4.479,0-4.063,0.128-4.063,3.008c0,4.384,1.983,2.624,1.983,4.703
		c0,2.24-4.672,2.369-6.208,2.369c-1.472,0-5.919-0.129-5.919-2.306c0-0.672,0.479-1.088,1.023-1.344
		c1.152-0.544,1.567-0.447,1.567-7.135c0-8.511-0.128-7.808-1.313-8.447c-0.479-0.256-1.056-0.544-1.056-1.184
		c0-2.464,5.344-2.72,7.136-2.72c1.344,0,5.056,0.16,5.056,2.08c0,0.992-0.544,1.344-1.279,1.792
		c-0.801,0.448-0.992,0.832-0.992,3.68c0,1.792,0.832,1.568,2.368,1.568h1.632c2.111,0,2.048-0.32,2.048-1.312
		c0-3.488-0.544-3.711-0.96-3.936c-0.607-0.352-1.185-0.64-1.185-1.472c0-0.608-0.128-2.4,6.239-2.4c1.504,0,5.76,0.032,5.76,2.271
		c0,0.704-0.352,1.184-0.991,1.504c-0.96,0.416-1.313,0.32-1.313,5.408L455.002,49.18L455.002,49.18z"/>
	<path fill="#FFFFFF" d="M484.282,37.565c0-3.424-2.752-2.112-2.752-3.968c0-1.984,3.712-1.92,5.022-1.92
		c1.216,0,4.735,0,4.735,1.856c0,1.792-2.399,0.704-2.399,3.616v8.639c0,1.44,0.032,9.12-11.039,9.12
		c-12.606,0-11.198-9.728-11.198-10.111v-7.392c0.128-2.016-2.049-2.016-2.049-3.488c0-0.448-0.353-2.24,6.239-2.24
		c5.216,0,6.271,0.96,6.271,2.208c0,2.304-2.336,0.16-2.496,4.064v5.888c0,3.808,1.439,6.239,4.832,6.239
		c5.056,0,4.832-4.191,4.832-4.543L484.282,37.565L484.282,37.565z"/>
	<path fill="#FFFFFF" d="M501.019,38.685c0-4.959-2.432-2.912-2.432-4.896c0-1.76,2.495-1.984,3.775-1.984
		c0.672,0,1.312,0.064,1.983,0.096c0.641,0.064,1.313,0.128,1.951,0.128c1.024,0,2.048-0.064,3.104-0.128
		c1.022-0.032,2.079-0.096,3.104-0.096c3.615,0,7.808,1.6,7.808,5.855c0,1.92-0.929,3.776-2.72,4.64
		c-0.288,0.16-0.513,0.256-0.513,0.64c0,0.48,0.416,0.608,0.8,0.768c2.24,0.832,3.232,2.304,3.68,5.759
		c0.386,2.977,2.465,1.184,2.465,3.135c0,1.217-1.473,2.496-5.087,2.496c-5.12,0-5.761-2.942-6.753-7.167
		c-0.352-1.472-0.896-2.912-2.654-2.912c-0.704,0-0.96,0.096-0.96,2.112c0,0.928,0.063,2.208,0.224,3.104
		c0.256,1.472,1.888,1.023,1.888,2.56c0,1.152-0.8,2.018-5.982,2.018c-1.536,0-6.08,0-6.08-2.336c0-1.664,2.399-0.513,2.399-4.672
		V38.685z M508.442,40.093c-0.064,0.832-0.226,1.536,0.831,1.536c2.079,0,2.752-1.152,2.752-3.136c0-1.568-0.385-3.168-2.239-3.168
		c-1.186,0-1.152,0.736-1.216,1.728L508.442,40.093z"/>
	<path fill="#FFFFFF" d="M543.896,31.582c3.137,0,5.151,1.568,5.983,1.568c0.704,0,0.896-0.224,1.44-0.224
		c1.344,0,3.07,2.016,3.07,5.568c0,1.824-1.088,3.36-2.976,3.36c-3.296,0-2.464-5.664-8.159-5.664c-2.464,0-3.488,2.304-3.488,4.063
		c0,4.736,2.528,8.768,7.009,8.768c4.063,0,4.672-2.208,5.663-2.208c0.929,0,1.375,1.088,1.375,1.888
		c0,1.408-1.472,4.354-3.07,4.354c-1.088,0-3.328,1.854-7.104,1.854c-6.72,0-12.224-5.312-12.224-11.744
		C531.418,36.605,537.594,31.582,543.896,31.582z"/>
	<path fill="#FFFFFF" d="M585.434,49.18c0,0.96,0.129,1.44,0.992,1.919c0.641,0.353,1.088,0.545,1.088,1.344
		c0,0.769-0.063,2.369-6.367,2.369c-1.407,0-5.504-0.033-5.504-2.177c-0.129-2.464,2.239,0.257,2.239-6.24
		c0-1.728-0.384-1.664-1.982-1.664c-4.48,0-4.064,0.128-4.064,3.008c0,4.384,1.984,2.624,1.984,4.703
		c0,2.24-4.672,2.369-6.208,2.369c-1.473,0-5.919-0.129-5.919-2.306c0-0.672,0.479-1.088,1.022-1.344
		c1.152-0.544,1.568-0.447,1.568-7.135c0-8.511-0.128-7.808-1.313-8.447c-0.479-0.256-1.056-0.544-1.056-1.184
		c0-2.464,5.344-2.72,7.136-2.72c1.345,0,5.057,0.16,5.057,2.08c0,0.992-0.544,1.344-1.28,1.792c-0.8,0.448-0.992,0.832-0.992,3.68
		c0,1.792,0.832,1.568,2.368,1.568h1.632c2.112,0,2.048-0.32,2.048-1.312c0-3.488-0.544-3.711-0.96-3.936
		c-0.606-0.352-1.184-0.64-1.184-1.472c0-0.608-0.128-2.4,6.238-2.4c1.505,0,5.761,0.032,5.761,2.271
		c0,0.704-0.353,1.184-0.992,1.504c-0.96,0.416-1.313,0.32-1.313,5.408L585.434,49.18L585.434,49.18z"/>
	<path fill="#FFFFFF" d="M608.25,32.03c4.288,0,4.896-0.64,5.407-0.64c1.823,0,2.592,3.136,2.592,4.543
		c0,1.056-0.416,2.304-1.663,2.304c-2.528,0-0.48-3.072-6.56-3.072c-3.553,0-3.2,0.64-3.2,4.319c0,1.856,0.096,1.92,2.048,1.92
		c2.432,0,0.607-3.552,2.88-3.552c1.855,0,1.983,3.616,1.983,4.864c0,1.312-0.225,5.152-2.145,5.152c-1.982,0,0-3.36-3.23-3.36
		c-1.345,0-1.313,1.216-1.313,2.24c0,4.671,0.32,4.447,3.68,4.447c6.561,0,4.704-4.511,7.328-4.511c1.023,0,1.535,1.152,1.535,2.048
		c0,2.176-1.728,6.081-3.007,6.081c-0.226,0-0.736-0.098-1.408-0.192c-0.704-0.063-1.6-0.16-2.688-0.16h-13.151
		c-2.112,0-2.145-0.96-2.145-1.376c0-1.76,2.177-0.352,2.399-3.744c0.384-5.824,0.416-5.248,0.096-11.039
		c-0.224-4.896-2.654-2.368-2.654-4.64c0-1.952,2.688-1.632,3.999-1.632h9.217V32.03z"/>
	<path fill="#FFFFFF" d="M625.499,39.037c0-3.328,3.199-7.456,9.407-7.456c2.048,0,4.352,0.896,4.831,0.896
		c0.447,0,0.896-0.448,1.567-0.448c1.088,0,3.521,2.463,3.521,5.151c0,1.088-0.704,2.176-1.888,2.176
		c-2.145,0-3.393-3.647-6.721-3.647c-0.992,0-2.048,0.448-2.048,1.6c0,2.528,4.384,1.856,8.096,4.32
		c1.983,1.312,2.977,2.912,2.977,5.312c0,3.743-3.071,7.968-10.527,7.968c-2.11,0-5.728-0.545-7.552-1.536
		c-1.535-0.864-2.271-4.256-2.271-5.888c0-0.864,0.385-1.728,1.345-1.728c2.271,0,1.888,5.087,7.774,5.087
		c0.704,0,2.465-0.352,2.465-1.567c0-2.304-4.385-1.728-7.937-4.576C626.778,43.293,625.499,41.341,625.499,39.037z"/>
</g>
</svg>
