<?xml version="1.0" encoding="utf-8"?>
<!-- Generator: Adobe Illustrator 16.0.0, SVG Export Plug-In . SVG Version: 6.00 Build 0)  -->
<!DOCTYPE svg PUBLIC "-//W3C//DTD SVG 1.1//EN" "http://www.w3.org/Graphics/SVG/1.1/DTD/svg11.dtd">
<svg version="1.1" id="Layer_1" xmlns="http://www.w3.org/2000/svg" xmlns:xlink="http://www.w3.org/1999/xlink" x="0px" y="0px"
	 width="668px" height="100px" viewBox="0 0 668 100" enable-background="new 0 0 668 100" xml:space="preserve">
<rect x="0" y="123.334" fill="#010733" width="668" height="100"/>
<rect x="47.351" y="5.56" fill="#F40C0C" width="4.937" height="76.561"/>
<rect x="20.6" y="21.483" fill="#F40C0C" width="59.71" height="4.299"/>
<path fill="#8DD809" d="M71.234,29.684l-3.503-1.512c0,0-1.353-6.21-6.369-2.389c0,0-5.414,6.37-9.076,6.37
	c0,0-4.06,0.159-6.688-2.628c0,0-8.2-6.496-14.251-1.177l-5.573,6.273c0,0-0.875,1.274-1.592,1.512c0,0,1.115,1.592,2.149,1.592
	c0,0,0.875,1.194,2.07,0c0,0,0.637,2.335,2.468,0.53l1.274,0.106l0.637,0.579c0,0-1.035,1.094-1.99,1.651
	c-0.955,0.558-2.866,1.115-2.866,1.115l-1.274,0.557l-4.378,0.803c0,0-4.061,0.153-3.264,2.78l1.592,1.273l0.796,2.548l0.649,1.667
	h0.784l0.478,1.039h0.716c0,0,3.503,0.479,4.856-0.717c0,0,3.105-0.078,3.981-2.708c0,0,8.917-1.354,9.633-2.148
	c0,0,0.558-0.239,0.558,0.637s-0.398,2.389,0.637,2.389c0,0,0.717,3.98,1.831,1.831c0,0,0.239,1.752,1.832,1.434l4.936,3.742h1.353
	c0,0-0.16,2.229,1.114,0.955l1.036,1.672c0,0,0-2.067,0-4.617c0,0,2.946-9.632,2.547-11.066c0,0-0.398-1.562-0.558-1.776
	c-0.16-0.214,3.901-5.229,5.095-7.857l2.627-3.423l6.369-0.08l-3.98-1.194L71.234,29.684z"/>
<path fill="#8DD809" d="M80.709,22.121c0,0,1.194-0.886,2.547-1.438c1.354-0.553,1.035,1.438,1.035,1.438s0.318,3.105-3.981,4.617
	c0,0,0.08,0.796,0,0.875c-0.08,0.08,2.007,0,2.007,0l3.407,2.31l-1.831,4.219c0,0-3.885-0.911-4.172-1.848
	c-0.288-0.938-0.589-2.61,0-3.645c0,0,0.271-1.615-1.322-1.285c0,0-1.592,0.249-3.105,1.603l-2.07,1.353l0.478,0.956
	c0,0,1.194-0.159,1.991,0.398l0.637,0.08c0,0,0.558,0.636-0.716,0.557c0,0,0.637,2.707,0,3.264l-0.558-0.955l-0.716,2.228
	c0,0-0.08-2.148-1.115-2.069c0,0-0.796-0.079-0.875,0.796c0,0-0.637-0.08-0.478-2.229l-0.477-0.238c0,0,0.558-1.433,1.114-1.672
	L72.43,30.72l-5.733-0.716l0.558-0.716l4.617,0.478c0,0,2.627,0.081,4.34-3.185L80.709,22.121z"/>
<path fill="#FFFFFF" d="M97.086,20.795c0,0-22.394-5.697-22.612,31.32c0,0-2.389,11.293-7.259,15.521
	c-4.869,4.229-27.132,19.718-27.132,19.718S68.291,75.492,75.152,67.15c0,0,5.596-6.857,5.171-19.203
	C80.323,47.947,81.368,25.969,97.086,20.795z"/>
<path fill="#FFFFFF" d="M3.063,21.324c0,0,22.394-5.696,22.612,31.32c0,0,2.389,11.293,7.259,15.521
	c4.869,4.228,27.132,19.715,27.132,19.715s-28.208-11.86-35.069-20.2c0,0-5.596-6.855-5.171-19.204
	C19.826,48.476,18.782,26.498,3.063,21.324z"/>
<g>
	<path fill="#FFFFFF" d="M133.979-116.15h-12.2c-4.167,0-7.259-0.833-9.275-2.5c-2.017-1.666-3.025-4.232-3.025-7.7v-15.55
		c0-3.466,1.008-6.042,3.025-7.725c2.016-1.683,5.108-2.525,9.275-2.525h12.2c0.633,0,1.091,0.142,1.375,0.425
		c0.282,0.284,0.425,0.742,0.425,1.375v6.05c0,0.633-0.143,1.092-0.425,1.375c-0.284,0.284-0.742,0.425-1.375,0.425h-10.05
		c-1.034,0-1.8,0.208-2.3,0.625s-0.75,1.042-0.75,1.875v11.9c0,0.834,0.25,1.442,0.75,1.825c0.5,0.384,1.267,0.575,2.3,0.575h10.05
		c0.633,0,1.091,0.142,1.375,0.425c0.282,0.283,0.425,0.742,0.425,1.375v5.95c0,0.634-0.143,1.092-0.425,1.375
		C135.07-116.292,134.612-116.15,133.979-116.15z M131.229-121.15h-8.35c-3,0-5-0.45-6-1.35c-1-0.9-1.5-2.436-1.5-4.603v-14
		c0-2.2,0.517-3.758,1.55-4.675c1.033-0.917,3.016-1.375,5.95-1.375h8.35v-0.5h-8.35c-3.2,0-5.333,0.5-6.4,1.5s-1.6,2.684-1.6,5.05
		v14c0,2.302,0.525,3.95,1.575,4.95s3.191,1.5,6.425,1.5h8.35V-121.15z"/>
	<path fill="#FFFFFF" d="M171.68-125.6c0,1.534-0.226,2.925-0.675,4.175c-0.45,1.25-1.25,2.317-2.4,3.2
		c-1.15,0.884-2.733,1.575-4.75,2.075c-2.018,0.5-4.575,0.75-7.675,0.75c-3.101,0-5.667-0.25-7.7-0.75
		c-2.033-0.5-3.625-1.191-4.775-2.075c-1.149-0.883-1.949-1.95-2.399-3.2c-0.45-1.25-0.675-2.641-0.675-4.175v-17.05
		c0-1.533,0.225-2.925,0.675-4.175c0.45-1.25,1.25-2.325,2.399-3.225c1.15-0.9,2.742-1.6,4.775-2.1c2.033-0.5,4.6-0.75,7.7-0.75
		s5.657,0.25,7.675,0.75c2.017,0.5,3.6,1.2,4.75,2.1s1.95,1.975,2.4,3.225c0.449,1.25,0.675,2.642,0.675,4.175V-125.6z
		 M166.229-126.75v-14.75c0-2-0.717-3.625-2.15-4.875s-4.1-1.875-8-1.875c-3.899,0-6.55,0.625-7.949,1.875
		c-1.4,1.25-2.101,2.875-2.101,4.875v14.75c0,2,0.7,3.625,2.101,4.875c1.399,1.25,4.05,1.875,7.949,1.875c3.9,0,6.566-0.625,8-1.875
		S166.229-124.75,166.229-126.75z M146.529-126.75v-14.75c0-1.866,0.667-3.375,2-4.525s3.851-1.725,7.55-1.725
		c3.7,0,6.233,0.575,7.601,1.725c1.366,1.15,2.05,2.659,2.05,4.525v14.75c0,1.867-0.684,3.375-2.05,4.522
		c-1.367,1.15-3.9,1.728-7.601,1.728c-3.699,0-6.217-0.575-7.55-1.728C147.196-123.375,146.529-124.882,146.529-126.75z
		 M151.979-127.4c0,0.667,0.25,1.225,0.75,1.675s1.65,0.675,3.45,0.675c1.8,0,2.95-0.225,3.45-0.675s0.75-1.008,0.75-1.675v-13.45
		c0-0.633-0.25-1.175-0.75-1.625c-0.5-0.45-1.65-0.675-3.45-0.675c-1.8,0-2.95,0.225-3.45,0.675c-0.5,0.45-0.75,0.992-0.75,1.625
		V-127.4z"/>
	<path fill="#FFFFFF" d="M187.279-116.15h-7.45c-0.634,0-1.092-0.143-1.375-0.425c-0.283-0.283-0.425-0.741-0.425-1.375v-32.4
		c0-0.633,0.142-1.091,0.425-1.375c0.283-0.283,0.741-0.425,1.375-0.425h8.05c0.533,0,0.976,0.117,1.325,0.35
		c0.35,0.233,0.675,0.617,0.975,1.15l4.5,8.15c0.167,0.3,0.309,0.517,0.426,0.65c0.116,0.134,0.274,0.2,0.475,0.2h0.45
		c0.2,0,0.357-0.066,0.475-0.2c0.116-0.133,0.258-0.35,0.425-0.65l4.45-8.15c0.3-0.533,0.625-0.917,0.976-1.15
		c0.35-0.233,0.791-0.35,1.324-0.35h8.101c0.633,0,1.091,0.142,1.375,0.425c0.28,0.283,0.423,0.742,0.423,1.375v32.4
		c0,0.634-0.143,1.092-0.425,1.375c-0.284,0.282-0.742,0.425-1.375,0.425h-7.7c-0.634,0-1.092-0.143-1.375-0.425
		c-0.283-0.283-0.425-0.741-0.425-1.375v-17.601l-2.95,5.45c-0.3,0.567-0.658,0.976-1.075,1.226s-0.942,0.375-1.575,0.375h-2
		c-0.633,0-1.158-0.125-1.574-0.375c-0.418-0.25-0.775-0.656-1.075-1.226l-2.95-5.45v17.601c0,0.634-0.143,1.092-0.425,1.375
		C188.37-116.292,187.912-116.15,187.279-116.15z M195.629-135.4c-0.6,0-1.033-0.133-1.3-0.4c-0.268-0.266-0.684-0.832-1.25-1.7
		l-6.1-9.3c-0.2-0.333-0.434-0.558-0.7-0.675c-0.268-0.116-0.534-0.175-0.8-0.175h-0.851c-0.434,0-0.759,0.125-0.975,0.375
		c-0.218,0.25-0.325,0.642-0.325,1.175v25.45h0.5v-25.45c0-0.266,0.05-0.508,0.15-0.725c0.1-0.217,0.316-0.325,0.649-0.325h0.75
		c0.233,0,0.441,0.034,0.625,0.1c0.183,0.067,0.375,0.267,0.575,0.6l6.1,9.2c0.601,0.9,1.059,1.517,1.375,1.85
		c0.316,0.334,0.842,0.5,1.575,0.5s1.258-0.166,1.575-0.5c0.316-0.333,0.775-0.95,1.375-1.85l6.1-9.2
		c0.2-0.333,0.383-0.533,0.551-0.6c0.166-0.066,0.366-0.1,0.6-0.1h0.751c0.333,0,0.558,0.108,0.675,0.325
		c0.116,0.217,0.175,0.458,0.175,0.725v25.45h0.5v-25.45c0-0.533-0.108-0.925-0.324-1.175c-0.218-0.25-0.559-0.375-1.025-0.375
		h-0.85c-0.268,0-0.525,0.059-0.775,0.175c-0.25,0.117-0.475,0.342-0.675,0.675l-6.101,9.3c-0.566,0.868-0.983,1.434-1.25,1.7
		C196.662-135.533,196.229-135.4,195.629-135.4z"/>
	<path fill="#FFFFFF" d="M229.729-116.15h-7.45c-0.634,0-1.092-0.143-1.375-0.425c-0.283-0.283-0.425-0.741-0.425-1.375v-32.4
		c0-0.633,0.142-1.091,0.425-1.375c0.283-0.283,0.741-0.425,1.375-0.425h8.05c0.533,0,0.976,0.117,1.325,0.35
		c0.35,0.233,0.675,0.617,0.975,1.15l4.5,8.15c0.167,0.3,0.309,0.517,0.426,0.65c0.116,0.134,0.274,0.2,0.475,0.2h0.45
		c0.2,0,0.357-0.066,0.475-0.2c0.116-0.133,0.258-0.35,0.425-0.65l4.45-8.15c0.3-0.533,0.625-0.917,0.976-1.15
		c0.35-0.233,0.791-0.35,1.324-0.35h8.101c0.633,0,1.091,0.142,1.375,0.425c0.282,0.284,0.425,0.742,0.425,1.375v32.4
		c0,0.634-0.143,1.092-0.425,1.375c-0.286,0.282-0.744,0.425-1.377,0.425h-7.7c-0.634,0-1.092-0.143-1.375-0.425
		c-0.283-0.283-0.425-0.741-0.425-1.375v-17.601l-2.95,5.45c-0.3,0.567-0.658,0.976-1.075,1.226s-0.942,0.375-1.575,0.375h-2
		c-0.633,0-1.158-0.125-1.574-0.375c-0.418-0.25-0.775-0.656-1.075-1.226l-2.95-5.45v17.601c0,0.634-0.143,1.092-0.425,1.375
		C230.82-116.292,230.362-116.15,229.729-116.15z M238.079-135.4c-0.6,0-1.033-0.133-1.3-0.4c-0.268-0.266-0.684-0.832-1.25-1.7
		l-6.1-9.3c-0.2-0.333-0.434-0.558-0.7-0.675c-0.268-0.116-0.534-0.175-0.8-0.175h-0.85c-0.434,0-0.759,0.125-0.975,0.375
		c-0.218,0.25-0.325,0.642-0.325,1.175v25.45h0.5v-25.45c0-0.266,0.05-0.508,0.15-0.725c0.1-0.217,0.316-0.325,0.649-0.325h0.75
		c0.233,0,0.441,0.034,0.625,0.1c0.183,0.067,0.375,0.267,0.575,0.6l6.1,9.2c0.601,0.9,1.059,1.517,1.375,1.85
		c0.316,0.334,0.842,0.5,1.575,0.5s1.258-0.166,1.575-0.5c0.316-0.333,0.775-0.95,1.375-1.85l6.1-9.2
		c0.2-0.333,0.383-0.533,0.551-0.6c0.166-0.066,0.366-0.1,0.6-0.1h0.75c0.333,0,0.558,0.108,0.675,0.325
		c0.116,0.217,0.175,0.458,0.175,0.725v25.45h0.5v-25.45c0-0.533-0.108-0.925-0.324-1.175c-0.218-0.25-0.559-0.375-1.025-0.375
		h-0.85c-0.268,0-0.525,0.059-0.775,0.175c-0.25,0.117-0.475,0.342-0.675,0.675l-6.101,9.3c-0.566,0.868-0.983,1.434-1.25,1.7
		C239.112-135.533,238.68-135.4,238.079-135.4z"/>
	<path fill="#FFFFFF" d="M293.579-125.6c0,1.534-0.225,2.925-0.675,4.175c-0.45,1.25-1.25,2.317-2.399,3.2
		c-1.151,0.884-2.726,1.575-4.726,2.075s-4.55,0.75-7.649,0.75c-3.101,0-5.65-0.25-7.65-0.75s-3.575-1.191-4.725-2.075
		c-1.15-0.883-1.95-1.95-2.4-3.2c-0.45-1.25-0.675-2.641-0.675-4.175v-24.75c0-0.633,0.142-1.091,0.425-1.375
		c0.283-0.283,0.741-0.425,1.374-0.425h7.85c0.633,0,1.092,0.142,1.375,0.425c0.283,0.284,0.426,0.742,0.426,1.375v22.8
		c0,0.668,0.25,1.228,0.75,1.676c0.5,0.449,1.616,0.677,3.35,0.677c1.767,0,2.9-0.228,3.4-0.677c0.5-0.448,0.75-1.008,0.75-1.676
		v-22.8c0-0.633,0.141-1.091,0.425-1.375c0.282-0.283,0.741-0.425,1.375-0.425h7.6c0.633,0,1.092,0.142,1.375,0.425
		c0.282,0.283,0.424,0.742,0.424,1.375V-125.6z M268.18-147.65v20.85c0,2,0.691,3.625,2.075,4.875
		c1.383,1.25,4.024,1.875,7.925,1.875c3.899,0,6.55-0.625,7.95-1.875c1.399-1.25,2.1-2.875,2.1-4.875v-20.85h-0.5v20.85
		c0,1.867-0.667,3.375-2,4.525c-1.334,1.15-3.85,1.725-7.55,1.725c-3.7,0-6.209-0.574-7.525-1.725
		c-1.317-1.15-1.975-2.658-1.975-4.525v-20.85H268.18z"/>
	<path fill="#FFFFFF" d="M309.528-116.15h-7.5c-0.634,0-1.092-0.143-1.375-0.425c-0.283-0.283-0.425-0.741-0.425-1.375v-32.4
		c0-0.633,0.142-1.091,0.425-1.375c0.283-0.283,0.741-0.425,1.375-0.425h5.2c0.633,0,1.175,0.1,1.625,0.3
		c0.449,0.2,0.892,0.55,1.324,1.05l9.699,11.1v-10.65c0-0.633,0.143-1.091,0.426-1.375c0.283-0.283,0.742-0.425,1.376-0.425h7.5
		c0.635,0,1.094,0.142,1.375,0.425c0.283,0.284,0.428,0.742,0.428,1.375v32.4c0,0.634-0.145,1.092-0.428,1.375
		c-0.285,0.282-0.742,0.425-1.375,0.425h-7.5c-0.634,0-1.093-0.143-1.375-0.425c-0.283-0.283-0.426-0.741-0.426-1.375v-6.15
		l-8.55-10.35v16.5c0,0.634-0.142,1.092-0.425,1.375C310.62-116.292,310.161-116.15,309.528-116.15z M306.828-147.25
		c-0.167-0.167-0.3-0.283-0.399-0.35c-0.101-0.066-0.218-0.1-0.351-0.1c-0.134,0-0.267,0.05-0.399,0.15
		c-0.134,0.1-0.199,0.25-0.199,0.45v26.45h0.5V-147c0-0.033,0.008-0.066,0.023-0.1c0.018-0.033,0.042-0.05,0.075-0.05
		s0.075,0.017,0.125,0.05c0.05,0.034,0.092,0.067,0.125,0.1l18.9,21.2v5.15h0.5v-27h-0.5v21.1L306.828-147.25z"/>
	<path fill="#FFFFFF" d="M338.877-116.15c-0.633,0-1.092-0.143-1.375-0.425c-0.283-0.283-0.424-0.741-0.424-1.375v-5.95
		c0-0.633,0.141-1.092,0.424-1.375s0.742-0.425,1.375-0.425h4.951v-16.8h-4.951c-0.633,0-1.092-0.141-1.375-0.425
		c-0.283-0.283-0.424-0.742-0.424-1.375v-6.05c0-0.633,0.141-1.091,0.424-1.375c0.283-0.283,0.742-0.425,1.375-0.425h21.301
		c0.635,0,1.094,0.142,1.375,0.425c0.283,0.284,0.426,0.742,0.426,1.375v6.05c0,0.633-0.143,1.092-0.426,1.375
		c-0.281,0.284-0.74,0.425-1.375,0.425h-4.85v16.8h4.85c0.635,0,1.094,0.142,1.375,0.425c0.283,0.283,0.426,0.742,0.426,1.375v5.95
		c0,0.634-0.143,1.092-0.426,1.375c-0.283,0.282-0.744,0.425-1.375,0.425H338.877z M357.477-120.65v-0.5h-7.648v-26h7.648v-0.5
		h-15.898v0.5h7.75v26h-7.75v0.5H357.477z"/>
	<path fill="#FFFFFF" d="M385.127-116.15h-8.1c-0.635,0-1.094-0.143-1.375-0.425c-0.283-0.283-0.426-0.741-0.426-1.375v-24.55
		h-7.352c-0.633,0-1.092-0.141-1.375-0.425c-0.283-0.283-0.424-0.742-0.424-1.375v-6.05c0-0.633,0.141-1.091,0.424-1.375
		c0.283-0.283,0.742-0.425,1.375-0.425h26.4c0.633,0,1.092,0.142,1.375,0.425c0.281,0.284,0.426,0.742,0.426,1.375v6.05
		c0,0.633-0.145,1.092-0.426,1.375c-0.283,0.284-0.742,0.425-1.375,0.425h-7.352v24.55c0,0.634-0.143,1.092-0.426,1.375
		C386.219-116.292,385.76-116.15,385.127-116.15z M380.828-120.65h0.5v-26.5h10.25v-0.5h-21v0.5h10.25V-120.65z"/>
	<path fill="#FFFFFF" d="M419.178-116.15h-8.102c-0.633,0-1.092-0.143-1.375-0.425c-0.283-0.283-0.424-0.741-0.424-1.375v-6.4
		l-7.65-10.25c-0.768-1.032-1.273-1.933-1.523-2.7s-0.375-1.917-0.375-3.45v-9.6c0-0.633,0.143-1.091,0.426-1.375
		c0.283-0.283,0.74-0.425,1.375-0.425h7.699c0.633,0,1.092,0.142,1.375,0.425c0.281,0.284,0.426,0.742,0.426,1.375v8.2
		c0,0.333,0.016,0.684,0.049,1.05c0.033,0.367,0.168,0.717,0.4,1.05l2.301,3.6c0.166,0.3,0.342,0.517,0.523,0.649
		c0.184,0.133,0.406,0.198,0.676,0.198h0.5c0.268,0,0.49-0.065,0.676-0.198c0.182-0.135,0.355-0.352,0.523-0.649l2.299-3.6
		c0.232-0.333,0.367-0.683,0.4-1.05c0.033-0.366,0.051-0.716,0.051-1.05v-8.2c0-0.633,0.143-1.091,0.424-1.375
		c0.283-0.283,0.742-0.425,1.375-0.425h7.451c0.633,0,1.09,0.142,1.375,0.425c0.281,0.284,0.424,0.742,0.424,1.375v9.6
		c0,1.534-0.133,2.684-0.398,3.45c-0.268,0.767-0.768,1.667-1.5,2.7l-7.602,10.3v6.351c0,0.634-0.143,1.092-0.424,1.375
		C420.268-116.292,419.811-116.15,419.178-116.15z M415.727-129.2c0.768,0,1.439-0.167,2.023-0.5
		c0.582-0.333,1.143-0.866,1.676-1.601l5-6.75c0.398-0.533,0.625-1.125,0.676-1.775c0.051-0.65,0.074-1.342,0.074-2.075v-5.749h-0.5
		v5.75c0,0.7-0.033,1.375-0.102,2.025s-0.268,1.192-0.602,1.625l-5,6.75c-0.5,0.633-1.008,1.092-1.523,1.375
		c-0.514,0.283-1.092,0.425-1.727,0.425h-1.35c-0.566,0-1.133-0.134-1.699-0.4c-0.566-0.266-1.066-0.731-1.5-1.399l-4.852-6.75
		c-0.332-0.5-0.533-1.058-0.602-1.675c-0.064-0.617-0.1-1.275-0.1-1.975v-5.751h-0.5v5.75c0,0.733,0.033,1.434,0.1,2.1
		c0.066,0.667,0.283,1.25,0.65,1.75l4.85,6.75c0.533,0.734,1.094,1.27,1.678,1.603c0.582,0.333,1.238,0.5,1.975,0.5h0.5v8.55h0.5
		v-8.55L415.727-129.2L415.727-129.2z"/>
	<path fill="#FFFFFF" d="M470.877-116.15h-12.201c-4.166,0-7.258-0.833-9.273-2.5c-2.018-1.666-3.023-4.232-3.023-7.7v-15.55
		c0-3.466,1.008-6.042,3.023-7.725s5.107-2.525,9.273-2.525h12.201c0.633,0,1.09,0.142,1.375,0.425
		c0.281,0.284,0.424,0.742,0.424,1.375v6.05c0,0.633-0.143,1.092-0.424,1.375c-0.285,0.284-0.742,0.425-1.375,0.425h-10.051
		c-1.033,0-1.801,0.208-2.301,0.625s-0.75,1.042-0.75,1.875v11.9c0,0.834,0.25,1.442,0.75,1.825c0.5,0.384,1.268,0.575,2.301,0.575
		h10.051c0.633,0,1.09,0.142,1.375,0.425c0.281,0.283,0.424,0.742,0.424,1.375v5.95c0,0.634-0.143,1.092-0.424,1.375
		C471.967-116.292,471.51-116.15,470.877-116.15z M468.127-121.15h-8.352c-3,0-5-0.45-6-1.35c-1-0.9-1.5-2.436-1.5-4.603v-14
		c0-2.2,0.518-3.758,1.551-4.675s3.016-1.375,5.949-1.375h8.352v-0.5h-8.352c-3.199,0-5.332,0.5-6.398,1.5s-1.602,2.684-1.602,5.05
		v14c0,2.302,0.523,3.95,1.574,4.95s3.191,1.5,6.426,1.5h8.352V-121.15z"/>
	<path fill="#FFFFFF" d="M487.875-116.15h-7.75c-0.633,0-1.092-0.143-1.375-0.425c-0.283-0.283-0.424-0.741-0.424-1.375v-32.4
		c0-0.633,0.141-1.091,0.424-1.375c0.283-0.283,0.742-0.425,1.375-0.425h7.75c0.633,0,1.092,0.142,1.375,0.425
		c0.283,0.284,0.426,0.742,0.426,1.375v10.85h8.352v-10.85c0-0.633,0.141-1.091,0.426-1.375c0.281-0.283,0.74-0.425,1.375-0.425
		h7.75c0.633,0,1.09,0.142,1.375,0.425c0.281,0.284,0.424,0.742,0.424,1.375v32.4c0,0.634-0.143,1.092-0.424,1.375
		c-0.287,0.282-0.744,0.425-1.377,0.425h-7.75c-0.635,0-1.094-0.143-1.375-0.425c-0.285-0.283-0.426-0.741-0.426-1.375v-11.101
		h-8.352v11.101c0,0.634-0.143,1.092-0.426,1.375C488.967-116.292,488.508-116.15,487.875-116.15z M483.725-120.65h0.5v-13.25
		h19.199v13.25h0.5v-27h-0.5v13.25h-19.199v-13.25h-0.5V-120.65z"/>
	<path fill="#FFFFFF" d="M546.924-125.6c0,1.534-0.225,2.925-0.674,4.175c-0.451,1.25-1.25,2.317-2.398,3.2
		c-1.15,0.884-2.727,1.575-4.727,2.075s-4.551,0.75-7.648,0.75c-3.102,0-5.65-0.25-7.65-0.75s-3.574-1.191-4.725-2.075
		c-1.15-0.883-1.949-1.95-2.4-3.2c-0.449-1.25-0.674-2.641-0.674-4.175v-24.75c0-0.633,0.141-1.091,0.424-1.375
		c0.283-0.283,0.742-0.425,1.375-0.425h7.85c0.635,0,1.094,0.142,1.375,0.425c0.283,0.284,0.428,0.742,0.428,1.375v22.8
		c0,0.668,0.25,1.228,0.75,1.676c0.5,0.449,1.615,0.677,3.35,0.677c1.768,0,2.9-0.228,3.4-0.677c0.5-0.448,0.75-1.008,0.75-1.676
		v-22.8c0-0.633,0.141-1.091,0.426-1.375c0.281-0.283,0.74-0.425,1.375-0.425h7.6c0.633,0,1.092,0.142,1.375,0.425
		c0.283,0.284,0.424,0.742,0.424,1.375v24.75H546.924z M521.525-147.65v20.85c0,2,0.689,3.625,2.074,4.875
		c1.383,1.25,4.023,1.875,7.926,1.875c3.896,0,6.549-0.625,7.949-1.875c1.398-1.25,2.1-2.875,2.1-4.875v-20.85h-0.5v20.85
		c0,1.867-0.666,3.375-2,4.525s-3.85,1.725-7.549,1.725c-3.701,0-6.209-0.574-7.525-1.725c-1.318-1.15-1.975-2.658-1.975-4.525
		v-20.85H521.525z"/>
	<path fill="#FFFFFF" d="M563.074-116.15h-7.699c-0.635,0-1.092-0.143-1.375-0.425c-0.283-0.283-0.426-0.741-0.426-1.375v-32.4
		c0-0.633,0.143-1.091,0.426-1.375c0.283-0.283,0.74-0.425,1.375-0.425h16.65c3.73,0,6.307,0.775,7.725,2.325
		c1.416,1.55,2.125,3.559,2.125,6.025v2.3c0,1.4-0.209,2.592-0.625,3.575c-0.418,0.983-1.143,1.692-2.176,2.125
		c1.801,0.2,3.258,0.936,4.375,2.2c1.117,1.269,1.676,2.95,1.676,5.05v10.601c0,0.634-0.143,1.092-0.426,1.375
		c-0.283,0.282-0.742,0.425-1.375,0.425h-7.75c-0.633,0-1.092-0.143-1.375-0.425c-0.283-0.283-0.424-0.741-0.424-1.375v-7.65
		c0-0.731-0.145-1.274-0.428-1.625c-0.281-0.35-0.773-0.524-1.475-0.524h-7v9.802c0,0.634-0.143,1.092-0.426,1.375
		C564.166-116.292,563.707-116.15,563.074-116.15z M559.475-120.65v-11.6h14.148c1.9,0,3.301,0.408,4.201,1.225
		c0.896,0.816,1.35,2.042,1.35,3.675v6.7h0.5v-6.7c0-1.731-0.5-3.058-1.5-3.975s-2.518-1.375-4.551-1.375h-0.549
		c1.199-0.366,2-1.042,2.396-2.025c0.4-0.981,0.604-2.241,0.604-3.775v-3.45c0-1.633-0.469-2.992-1.4-4.075
		c-0.934-1.083-2.367-1.625-4.301-1.625h-11.398v27H559.475z M570.375-147.15c1.768,0,3.074,0.483,3.924,1.45
		c0.854,0.967,1.275,2.217,1.275,3.75v3.5c0,1.833-0.352,3.25-1.049,4.25c-0.701,1-2.084,1.5-4.15,1.5h-10.898v-14.45H570.375z
		 M564.875-143.15v6.4h3.75c0.865,0,1.449-0.225,1.75-0.675c0.299-0.45,0.449-1.008,0.449-1.675v-1.7
		c0-0.667-0.15-1.225-0.449-1.675c-0.301-0.45-0.885-0.675-1.75-0.675H564.875z"/>
	<path fill="#FFFFFF" d="M614.426-116.15h-12.201c-4.166,0-7.258-0.833-9.273-2.5c-2.018-1.666-3.023-4.232-3.023-7.7v-15.55
		c0-3.466,1.008-6.042,3.023-7.725s5.105-2.525,9.273-2.525h12.199c0.635,0,1.092,0.142,1.375,0.425
		c0.283,0.284,0.426,0.742,0.426,1.375v6.05c0,0.633-0.143,1.092-0.426,1.375c-0.283,0.284-0.74,0.425-1.375,0.425h-10.051
		c-1.033,0-1.799,0.208-2.299,0.625s-0.75,1.042-0.75,1.875v11.9c0,0.834,0.25,1.442,0.75,1.825c0.5,0.384,1.266,0.575,2.299,0.575
		h10.051c0.635,0,1.092,0.142,1.375,0.425s0.426,0.742,0.426,1.375v5.95c0,0.634-0.143,1.092-0.426,1.375
		C615.516-116.292,615.057-116.15,614.426-116.15z M611.676-121.15h-8.352c-3,0-5-0.45-6-1.35c-1-0.9-1.5-2.436-1.5-4.603v-14
		c0-2.2,0.518-3.758,1.551-4.675s3.016-1.375,5.949-1.375h8.352v-0.5h-8.352c-3.199,0-5.332,0.5-6.398,1.5s-1.602,2.684-1.602,5.05
		v14c0,2.302,0.525,3.95,1.576,4.95c1.049,1,3.189,1.5,6.424,1.5h8.352V-121.15z"/>
	<path fill="#FFFFFF" d="M631.424-116.15h-7.75c-0.633,0-1.092-0.143-1.375-0.425c-0.283-0.283-0.424-0.741-0.424-1.375v-32.4
		c0-0.633,0.143-1.091,0.424-1.375c0.283-0.283,0.742-0.425,1.375-0.425h7.75c0.633,0,1.092,0.142,1.375,0.425
		c0.283,0.284,0.428,0.742,0.428,1.375v10.85h8.35v-10.85c0-0.633,0.141-1.091,0.426-1.375c0.281-0.283,0.74-0.425,1.375-0.425h7.75
		c0.633,0,1.09,0.142,1.375,0.425c0.281,0.284,0.424,0.742,0.424,1.375v32.4c0,0.634-0.143,1.092-0.424,1.375
		c-0.285,0.282-0.744,0.425-1.377,0.425h-7.75c-0.633,0-1.092-0.143-1.375-0.425c-0.283-0.283-0.424-0.741-0.424-1.375v-11.101
		h-8.352v11.101c0,0.634-0.143,1.092-0.426,1.375C632.516-116.292,632.057-116.15,631.424-116.15z M627.273-120.65h0.5v-13.25
		h19.199v13.25h0.5v-27h-0.5v13.25h-19.199v-13.25h-0.5V-120.65z"/>
</g>
<rect x="646" y="67" fill="#010733" width="13" height="1"/>
<text transform="matrix(1 0 0 1 166.0527 87.3535)" fill="#8DD809" font-family="'Lemon-Regular'" font-size="18" letter-spacing="3">A purpose Driven Church </text>
<g>
	<path fill="#FFFFFF" d="M110.333,31.582c3.136,0,5.151,1.568,5.983,1.568c0.704,0,0.896-0.224,1.44-0.224
		c1.344,0,3.072,2.016,3.072,5.568c0,1.824-1.088,3.36-2.976,3.36c-3.296,0-2.464-5.664-8.16-5.664
		c-2.464,0-3.488,2.304-3.488,4.063c0,4.736,2.528,8.768,7.008,8.768c4.063,0,4.671-2.208,5.664-2.208
		c0.928,0,1.376,1.088,1.376,1.888c0,1.408-1.472,4.353-3.072,4.353c-1.088,0-3.328,1.855-7.104,1.855
		c-6.72,0-12.223-5.312-12.223-11.744C97.854,36.605,104.029,31.582,110.333,31.582z"/>
	<path fill="#FFFFFF" d="M128.446,43.165c0-6.783,5.408-11.583,12.383-11.583c8.832,0,12.223,7.775,12.223,11.903
		c0,6.879-6.08,11.423-12.607,11.423C133.693,54.908,128.446,49.98,128.446,43.165z M139.357,36.349
		c-1.792,0-2.688,1.856-2.688,3.424c0,2.72,1.92,10.367,5.376,10.367c1.952,0,2.784-1.696,2.784-3.424
		C144.829,43.805,143.101,36.349,139.357,36.349z"/>
	<path fill="#FFFFFF" d="M169.149,45.469c-0.192-0.416-0.544-1.376-1.12-1.376c-0.992,0-0.672,4.224-0.672,5.28
		c0,3.423,2.048,1.824,2.048,3.551c0,1.824-3.424,1.889-4.672,1.889c-1.12,0-4.032-0.097-4.032-1.76c0-1.824,1.92-0.32,2.176-2.944
		c0.256-2.688,0.544-5.664,0.544-10.303c0-1.92-0.128-2.912-0.48-3.648c-0.32-0.672-2.144-0.896-2.144-2.208
		c0-1.824,2.976-2.271,5.536-2.271c3.744,0,3.68,0.64,4.64,2.271c1.12,1.888,3.104,7.136,4.512,7.456
		c0.992,0.224,2.304-3.647,3.456-5.759c1.632-3.008,1.664-3.968,5.888-3.968c1.408,0,4.608,0.096,4.608,2.112
		c0,1.28-1.44,1.536-1.76,2.624c-0.256,0.896-0.48,4.672-0.48,6.112c0,0.48,0.192,4,0.32,6.976c0.096,2.335,2.016,1.824,2.016,3.263
		c0,2.145-4.384,2.049-5.792,2.049c-1.312,0-5.696,0.127-5.696-1.92c0-1.121,1.44-1.313,1.664-2.336
		c0.128-0.544,0.768-6.048-0.352-6.048c-0.992,0-2.016,2.816-2.784,4.448c-0.704,1.472-1.856,5.12-2.88,4.992
		c-0.512-0.064-0.768,0-2.688-4.32L169.149,45.469z"/>
	<path fill="#FFFFFF" d="M205.277,45.469c-0.192-0.416-0.544-1.376-1.12-1.376c-0.992,0-0.672,4.224-0.672,5.28
		c0,3.423,2.048,1.824,2.048,3.551c0,1.824-3.424,1.889-4.672,1.889c-1.12,0-4.032-0.097-4.032-1.76c0-1.824,1.92-0.32,2.176-2.944
		c0.256-2.688,0.544-5.664,0.544-10.303c0-1.92-0.128-2.912-0.48-3.648c-0.32-0.672-2.144-0.896-2.144-2.208
		c0-1.824,2.976-2.271,5.536-2.271c3.744,0,3.68,0.64,4.64,2.271c1.12,1.888,3.104,7.136,4.512,7.456
		c0.992,0.224,2.304-3.647,3.456-5.759c1.632-3.008,1.664-3.968,5.888-3.968c1.408,0,4.608,0.096,4.608,2.112
		c0,1.28-1.44,1.536-1.76,2.624c-0.256,0.896-0.48,4.672-0.48,6.112c0,0.48,0.192,4,0.32,6.976c0.096,2.335,2.016,1.824,2.016,3.263
		c0,2.145-4.384,2.049-5.792,2.049c-1.312,0-5.696,0.127-5.696-1.92c0-1.121,1.44-1.313,1.664-2.336
		c0.128-0.544,0.768-6.048-0.352-6.048c-0.992,0-2.016,2.816-2.784,4.448c-0.704,1.472-1.856,5.12-2.88,4.992
		c-0.512-0.064-0.768,0-2.688-4.32L205.277,45.469z"/>
	<path fill="#FFFFFF" d="M252.635,37.565c0-3.424-2.752-2.112-2.752-3.968c0-1.984,3.712-1.92,5.024-1.92
		c1.216,0,4.735,0,4.735,1.856c0,1.792-2.399,0.704-2.399,3.616v8.639c0,1.44,0.032,9.12-11.04,9.12
		c-12.607,0-11.199-9.728-11.199-10.111v-7.392c0.128-2.016-2.048-2.016-2.048-3.488c0-0.448-0.352-2.24,6.24-2.24
		c5.216,0,6.271,0.96,6.271,2.208c0,2.304-2.336,0.16-2.496,4.064v5.888c0,3.808,1.44,6.239,4.832,6.239
		c5.056,0,4.832-4.191,4.832-4.543V37.565z"/>
	<path fill="#FFFFFF" d="M284.06,39.741c0.384,0.32,1.408,1.248,1.984,1.248c0.8,0,0.832-1.312,0.832-1.855
		c0-0.8-0.032-2.176-0.288-2.912c-0.448-1.344-2.144-0.864-2.144-2.592c0-2.048,3.264-1.952,4.608-1.952
		c1.408,0,4.896-0.16,4.896,2.048c0,1.824-1.696,1.152-2.24,2.624c-0.416,1.152-0.416,3.136-0.416,4.352v8.287
		c0,1.44,0.192,5.824-1.952,5.824c-0.64,0-1.184-0.385-1.664-0.801l-9.887-8.863c-0.448-0.416-1.28-1.184-1.952-1.184
		c-0.992,0-1.024,2.08-1.024,2.751c0,0.896,0.032,2.08,0.224,2.912c0.48,2.047,2.176,1.28,2.176,2.848
		c0,2.144-3.296,2.336-4.8,2.336c-1.472,0-4.768-0.192-4.768-2.272c0-1.696,1.856-1.024,2.176-3.072
		c0.224-1.376,0.288-3.392,0.288-4.832c0-2.304,0-4.64-0.352-6.943c-0.512-3.2-2.816-1.952-2.816-3.872
		c0-2.271,4.32-2.144,5.76-2.144c1.984,0,2.336,0.128,3.776,1.408L284.06,39.741z"/>
	<path fill="#FFFFFF" d="M303.932,41.661c0-4.064-0.32-4.992-0.672-5.44c-0.736-0.928-1.984-1.024-1.984-2.24
		c0-2.304,6.528-2.304,7.167-2.304c1.92,0,5.856,0.064,5.856,2.24c0,1.152-1.216,1.088-1.952,1.92
		c-0.608,0.704-0.64,3.583-0.64,5.824v3.167c0,5.696,0.384,5.568,1.024,5.952c0.8,0.479,1.568,0.64,1.568,1.632
		c0,0.96-0.288,2.4-7.295,2.4c-1.344,0-5.376-0.033-5.376-2.08c0-1.024,1.088-1.184,1.6-1.792c0.384-0.448,0.704-1.632,0.704-6.112
		V41.661z"/>
	<path fill="#FFFFFF" d="M337.083,32.03c1.376,0,2.016-0.128,2.495-0.224c0.448-0.128,0.705-0.224,1.313-0.224
		c1.248,0,3.84,2.464,3.84,5.919c0,1.6-0.832,2.656-2.464,2.656c-2.784,0-2.752-3.776-4.384-3.776c-1.248,0-1.12,1.728-1.12,1.984
		v9.823c0,3.808,2.944,1.984,2.944,4.224c0,0.992-0.608,2.4-6.592,2.4c-1.632,0-7.616,0.063-7.616-2.4
		c0-1.695,1.984-1.023,2.624-2.24c0.32-0.672,0.448-2.592,0.48-3.392l0.256-7.071c0.128-3.36-0.544-3.328-0.992-3.328
		c-1.44,0-2.144,3.776-4.736,3.776c-1.248,0-1.984-1.152-1.984-2.304c0-2.72,2.304-6.271,4.128-6.271
		c0.224,0,0.576,0.096,1.184,0.224c0.608,0.096,1.472,0.224,2.752,0.224H337.083z"/>
	<path fill="#FFFFFF" d="M369.499,40.477c-1.407,1.76-1.504,2.72-1.504,4.959c0,2.944,0.16,4.224,0.448,4.832
		c0.447,0.928,2.144,0.736,2.144,2.24c0,2.305-5.056,2.305-6.624,2.305c-6.271,0-7.104-1.44-7.104-2.305
		c0-1.728,1.824-1.088,2.4-2.399c0.32-0.736,0.512-2.208,0.512-5.312c0-1.824-0.287-2.432-1.408-3.872l-3.615-4.191
		c-1.568-1.824-3.648-1.312-3.648-2.88c0-0.736-0.223-2.176,7.232-2.176c6.655,0,6.592,1.248,6.592,1.952
		c0,0.832-0.896,1.152-0.896,1.824c0,0.704,1.279,2.72,2.08,2.72c0.832,0,2.176-1.696,2.176-2.432c0-0.896-0.928-0.96-0.928-2.176
		c0-1.888,3.711-1.888,4.928-1.888c4,0,5.055,0.48,5.055,1.888c0,2.048-2.303,0.864-3.903,2.592L369.499,40.477z"/>
	<path fill="#FFFFFF" d="M413.466,31.582c3.136,0,5.151,1.568,5.983,1.568c0.704,0,0.896-0.224,1.44-0.224
		c1.344,0,3.071,2.016,3.071,5.568c0,1.824-1.088,3.36-2.976,3.36c-3.296,0-2.464-5.664-8.159-5.664
		c-2.464,0-3.488,2.304-3.488,4.063c0,4.736,2.528,8.768,7.008,8.768c4.063,0,4.672-2.208,5.663-2.208
		c0.929,0,1.376,1.088,1.376,1.888c0,1.408-1.472,4.353-3.071,4.353c-1.088,0-3.328,1.855-7.104,1.855
		c-6.72,0-12.224-5.312-12.224-11.744C400.986,36.605,407.162,31.582,413.466,31.582z"/>
	<path fill="#FFFFFF" d="M455.002,49.18c0,0.96,0.128,1.44,0.992,1.919c0.64,0.353,1.088,0.545,1.088,1.345
		c0,0.768-0.064,2.368-6.368,2.368c-1.407,0-5.503-0.033-5.503-2.176c-0.129-2.464,2.239,0.256,2.239-6.24
		c0-1.728-0.384-1.664-1.983-1.664c-4.48,0-4.064,0.128-4.064,3.008c0,4.384,1.984,2.624,1.984,4.704
		c0,2.239-4.672,2.368-6.208,2.368c-1.472,0-5.919-0.129-5.919-2.305c0-0.672,0.479-1.088,1.023-1.344
		c1.152-0.544,1.568-0.447,1.568-7.135c0-8.511-0.128-7.808-1.313-8.447c-0.479-0.256-1.056-0.544-1.056-1.184
		c0-2.464,5.344-2.72,7.136-2.72c1.344,0,5.056,0.16,5.056,2.08c0,0.992-0.544,1.344-1.28,1.792c-0.8,0.448-0.992,0.832-0.992,3.68
		c0,1.792,0.832,1.568,2.368,1.568h1.632c2.112,0,2.048-0.32,2.048-1.312c0-3.488-0.544-3.711-0.96-3.936
		c-0.607-0.352-1.184-0.64-1.184-1.472c0-0.608-0.128-2.4,6.239-2.4c1.504,0,5.76,0.032,5.76,2.271c0,0.704-0.352,1.184-0.992,1.504
		c-0.96,0.416-1.312,0.32-1.312,5.408V49.18z"/>
	<path fill="#FFFFFF" d="M484.282,37.565c0-3.424-2.752-2.112-2.752-3.968c0-1.984,3.712-1.92,5.023-1.92
		c1.216,0,4.735,0,4.735,1.856c0,1.792-2.399,0.704-2.399,3.616v8.639c0,1.44,0.032,9.12-11.039,9.12
		c-12.607,0-11.199-9.728-11.199-10.111v-7.392c0.128-2.016-2.048-2.016-2.048-3.488c0-0.448-0.353-2.24,6.239-2.24
		c5.216,0,6.271,0.96,6.271,2.208c0,2.304-2.336,0.16-2.496,4.064v5.888c0,3.808,1.44,6.239,4.832,6.239
		c5.056,0,4.832-4.191,4.832-4.543V37.565z"/>
	<path fill="#FFFFFF" d="M501.019,38.685c0-4.959-2.432-2.912-2.432-4.896c0-1.76,2.495-1.984,3.775-1.984
		c0.672,0,1.312,0.064,1.984,0.096c0.64,0.064,1.312,0.128,1.951,0.128c1.024,0,2.048-0.064,3.104-0.128
		c1.023-0.032,2.079-0.096,3.104-0.096c3.615,0,7.808,1.6,7.808,5.855c0,1.92-0.929,3.776-2.72,4.64
		c-0.288,0.16-0.513,0.256-0.513,0.64c0,0.48,0.416,0.608,0.8,0.768c2.24,0.832,3.232,2.304,3.68,5.759
		c0.385,2.976,2.464,1.184,2.464,3.135c0,1.217-1.472,2.496-5.087,2.496c-5.12,0-5.76-2.943-6.752-7.167
		c-0.352-1.472-0.896-2.912-2.655-2.912c-0.704,0-0.96,0.096-0.96,2.112c0,0.928,0.063,2.208,0.224,3.104
		c0.256,1.472,1.888,1.023,1.888,2.56c0,1.152-0.8,2.017-5.983,2.017c-1.536,0-6.08,0-6.08-2.336c0-1.664,2.4-0.512,2.4-4.672
		V38.685z M508.442,40.093c-0.064,0.832-0.225,1.536,0.831,1.536c2.08,0,2.752-1.152,2.752-3.136c0-1.568-0.384-3.168-2.239-3.168
		c-1.185,0-1.152,0.736-1.216,1.728L508.442,40.093z"/>
	<path fill="#FFFFFF" d="M543.897,31.582c3.136,0,5.151,1.568,5.983,1.568c0.704,0,0.896-0.224,1.44-0.224
		c1.344,0,3.071,2.016,3.071,5.568c0,1.824-1.088,3.36-2.976,3.36c-3.296,0-2.464-5.664-8.159-5.664
		c-2.464,0-3.488,2.304-3.488,4.063c0,4.736,2.528,8.768,7.008,8.768c4.063,0,4.672-2.208,5.663-2.208
		c0.929,0,1.376,1.088,1.376,1.888c0,1.408-1.472,4.353-3.071,4.353c-1.088,0-3.328,1.855-7.104,1.855
		c-6.72,0-12.224-5.312-12.224-11.744C531.418,36.605,537.594,31.582,543.897,31.582z"/>
	<path fill="#FFFFFF" d="M585.434,49.18c0,0.96,0.128,1.44,0.992,1.919c0.64,0.353,1.088,0.545,1.088,1.345
		c0,0.768-0.064,2.368-6.368,2.368c-1.407,0-5.503-0.033-5.503-2.176c-0.129-2.464,2.239,0.256,2.239-6.24
		c0-1.728-0.384-1.664-1.983-1.664c-4.48,0-4.064,0.128-4.064,3.008c0,4.384,1.984,2.624,1.984,4.704
		c0,2.239-4.672,2.368-6.208,2.368c-1.472,0-5.919-0.129-5.919-2.305c0-0.672,0.479-1.088,1.023-1.344
		c1.152-0.544,1.568-0.447,1.568-7.135c0-8.511-0.128-7.808-1.313-8.447c-0.479-0.256-1.056-0.544-1.056-1.184
		c0-2.464,5.344-2.72,7.136-2.72c1.344,0,5.056,0.16,5.056,2.08c0,0.992-0.544,1.344-1.28,1.792c-0.8,0.448-0.992,0.832-0.992,3.68
		c0,1.792,0.832,1.568,2.368,1.568h1.632c2.112,0,2.048-0.32,2.048-1.312c0-3.488-0.544-3.711-0.96-3.936
		c-0.607-0.352-1.184-0.64-1.184-1.472c0-0.608-0.128-2.4,6.239-2.4c1.504,0,5.76,0.032,5.76,2.271c0,0.704-0.352,1.184-0.992,1.504
		c-0.96,0.416-1.312,0.32-1.312,5.408V49.18z"/>
	<path fill="#FFFFFF" d="M608.25,32.03c4.288,0,4.896-0.64,5.407-0.64c1.824,0,2.592,3.136,2.592,4.543
		c0,1.056-0.416,2.304-1.663,2.304c-2.528,0-0.48-3.072-6.56-3.072c-3.552,0-3.2,0.64-3.2,4.319c0,1.856,0.096,1.92,2.048,1.92
		c2.432,0,0.608-3.552,2.88-3.552c1.855,0,1.983,3.616,1.983,4.864c0,1.312-0.224,5.152-2.144,5.152c-1.983,0,0-3.36-3.231-3.36
		c-1.344,0-1.313,1.216-1.313,2.24c0,4.671,0.32,4.448,3.68,4.448c6.56,0,4.704-4.512,7.328-4.512c1.023,0,1.535,1.152,1.535,2.048
		c0,2.176-1.728,6.08-3.007,6.08c-0.225,0-0.736-0.097-1.408-0.192c-0.704-0.063-1.6-0.16-2.688-0.16h-13.151
		c-2.112,0-2.144-0.96-2.144-1.376c0-1.76,2.176-0.352,2.399-3.744c0.384-5.824,0.416-5.248,0.096-11.039
		c-0.224-4.896-2.655-2.368-2.655-4.64c0-1.952,2.688-1.632,3.999-1.632H608.25z"/>
	<path fill="#FFFFFF" d="M625.499,39.037c0-3.328,3.199-7.456,9.407-7.456c2.048,0,4.352,0.896,4.831,0.896
		c0.448,0,0.896-0.448,1.568-0.448c1.088,0,3.52,2.463,3.52,5.151c0,1.088-0.704,2.176-1.888,2.176c-2.144,0-3.392-3.647-6.72-3.647
		c-0.992,0-2.048,0.448-2.048,1.6c0,2.528,4.384,1.856,8.096,4.32c1.983,1.312,2.976,2.912,2.976,5.312
		c0,3.743-3.071,7.968-10.527,7.968c-2.111,0-5.728-0.545-7.552-1.536c-1.535-0.864-2.271-4.256-2.271-5.888
		c0-0.864,0.384-1.728,1.344-1.728c2.272,0,1.888,5.087,7.775,5.087c0.704,0,2.464-0.352,2.464-1.567
		c0-2.304-4.384-1.728-7.936-4.576C626.778,43.293,625.499,41.341,625.499,39.037z"/>
</g>
</svg>
